<svg id="d2" viewBox="0 0 900 800" xmlns="http://www.w3.org/2000/svg" font-size="14" font-family="system-ui, -apple-system, sans-serif">
  <defs>
    <marker id="a2" viewBox="0 0 10 10" refX="9" refY="5" markerWidth="8" markerHeight="8" orient="auto">
      <path d="M0,0 L10,5 L0,10 Z" fill="#64748b"/>
    </marker>
    <filter id="s2" x="-10%" y="-10%" width="120%" height="120%">
      <feDropShadow dx="0" dy="1.5" stdDeviation="2.5" flood-opacity="0.08"/>
    </filter>
  </defs>

  <!-- NOT_CHECKED -->
  <g filter="url(#s2)">
    <ellipse cx="450" cy="100" rx="110" ry="44" fill="#f8fafc" stroke="#475569" stroke-width="1.5"/>
    <text x="450" y="96" text-anchor="middle" font-size="15" font-weight="700" fill="#0f172a">NOT_CHECKED</text>
    <text x="450" y="116" text-anchor="middle" font-size="11" fill="#64748b">initial_delay · 미판정</text>
  </g>

  <!-- HEALTHY -->
  <g filter="url(#s2)">
    <ellipse cx="450" cy="320" rx="110" ry="44" fill="#f0fdf4" stroke="#16a34a" stroke-width="2"/>
    <text x="450" y="316" text-anchor="middle" font-size="15" font-weight="700" fill="#14532d">HEALTHY</text>
    <text x="450" y="336" text-anchor="middle" font-size="11" fill="#16a34a">활성 · 라우팅 대상</text>
  </g>

  <!-- UNHEALTHY -->
  <g filter="url(#s2)">
    <ellipse cx="200" cy="560" rx="110" ry="44" fill="#fef2f2" stroke="#dc2626" stroke-width="1.5"/>
    <text x="200" y="556" text-anchor="middle" font-size="15" font-weight="700" fill="#7f1d1d">UNHEALTHY</text>
    <text x="200" y="576" text-anchor="middle" font-size="11" fill="#dc2626">연속 실패 확정</text>
  </g>

  <!-- DEGRADED -->
  <g filter="url(#s2)">
    <ellipse cx="700" cy="560" rx="110" ry="44" fill="#fffbeb" stroke="#d97706" stroke-width="1.5"/>
    <text x="700" y="556" text-anchor="middle" font-size="15" font-weight="700" fill="#78350f">DEGRADED</text>
    <text x="700" y="576" text-anchor="middle" font-size="11" fill="#b45309">체크 불가 · 판정 유예</text>
  </g>

  <!-- TERMINATING (double border for terminal) -->
  <g filter="url(#s2)">
    <ellipse cx="200" cy="740" rx="114" ry="44" fill="#f1f5f9" stroke="#334155" stroke-width="1.5"/>
    <ellipse cx="200" cy="740" rx="106" ry="36" fill="none" stroke="#334155" stroke-width="1.5"/>
    <text x="200" y="736" text-anchor="middle" font-size="14" font-weight="700" fill="#1e293b">TERMINATING</text>
    <text x="200" y="754" text-anchor="middle" font-size="11" fill="#475569">terminal · 라우팅 종료</text>
  </g>

  <!-- NOT_CHECKED → HEALTHY -->
  <line x1="450" y1="144" x2="450" y2="276" stroke="#64748b" stroke-width="1.6" marker-end="url(#a2)"/>
  <text x="466" y="198" font-size="13" fill="#0f172a" font-weight="500">첫 성공 시 즉시</text>
  <text x="466" y="216" font-size="11" fill="#64748b">(initial_delay 중이어도)</text>

  <!-- NOT_CHECKED self loop -->
  <path d="M 345 88 C 265 55 255 135 342 118" fill="none" stroke="#64748b" stroke-width="1.5" marker-end="url(#a2)"/>
  <text x="238" y="88" text-anchor="end" font-size="11" fill="#64748b">실패는 무시</text>
  <text x="238" y="104" text-anchor="end" font-size="11" fill="#64748b">NOT_CHECKED 유지</text>

  <!-- HEALTHY → UNHEALTHY -->
  <path d="M 368 358 Q 240 470 228 520" fill="none" stroke="#64748b" stroke-width="1.6" marker-end="url(#a2)"/>
  <text x="232" y="408" text-anchor="end" font-size="12" fill="#0f172a" font-weight="500">N회 연속 실패</text>

  <!-- UNHEALTHY → HEALTHY -->
  <path d="M 272 522 Q 370 460 418 360" fill="none" stroke="#64748b" stroke-width="1.5" marker-end="url(#a2)"/>
  <text x="346" y="450" text-anchor="start" font-size="12" fill="#334155">성공 즉시 복구</text>

  <!-- HEALTHY → DEGRADED -->
  <path d="M 532 358 Q 660 470 672 520" fill="none" stroke="#64748b" stroke-width="1.6" marker-end="url(#a2)"/>
  <text x="668" y="408" font-size="12" fill="#0f172a" font-weight="500">체크 불가</text>

  <!-- DEGRADED → HEALTHY -->
  <path d="M 628 522 Q 530 460 482 360" fill="none" stroke="#64748b" stroke-width="1.5" marker-end="url(#a2)"/>
  <text x="554" y="484" text-anchor="end" font-size="12" fill="#334155">체크 복귀 + 성공</text>

  <!-- DEGRADED → UNHEALTHY -->
  <path d="M 590 560 Q 450 528 310 560" fill="none" stroke="#64748b" stroke-width="1.5" marker-end="url(#a2)"/>
  <text x="450" y="524" text-anchor="middle" font-size="12" fill="#0f172a" font-weight="500">체크 복귀 후 연속 실패</text>

  <!-- UNHEALTHY → TERMINATING -->
  <line x1="200" y1="604" x2="200" y2="696" stroke="#64748b" stroke-width="1.6" marker-end="url(#a2)"/>
  <text x="216" y="654" font-size="12" fill="#0f172a" font-weight="500">eviction</text>
</svg>
