<svg  viewBox="0 0 24 24" fill="none" xmlns="http://www.w3.org/2000/svg">
<path fill-rule="evenodd" clip-rule="evenodd" d="M13.0492 1.02164C12.4219 0.659454 11.649 0.659454 11.0217 1.02164L3.03476 5.63287C2.40744 5.99506 2.021 6.6644 2.021 7.38876V16.6112C2.021 17.3356 2.40744 18.0049 3.03476 18.3671L11.0217 22.9784C11.2124 23.0885 11.4166 23.1651 11.6261 23.2083C11.7419 23.2542 11.8682 23.2795 12.0004 23.2795C12.5609 23.2795 13.0154 22.8251 13.0154 22.2645V22.1853H13.0171V20.6557L13.0154 20.6567V19.2372C13.0154 19.2055 13.0139 19.1742 13.0111 19.1433V12.5845L20.0223 8.55509V9.02133C20.0211 9.04152 20.0205 9.06188 20.0205 9.08238V11.2054C20.0205 11.766 20.4749 12.2204 21.0355 12.2204C21.5961 12.2204 22.0505 11.766 22.0505 11.2054V9.08238C22.0505 9.06996 22.0503 9.05759 22.0498 9.04528V7.38876C22.0498 6.6644 21.6634 5.99506 21.0361 5.63287L13.0492 1.02164ZM19.0048 6.80133L12.0354 2.77753L5.02777 6.8234L11.9971 10.8288L19.0048 6.80133ZM4.04852 8.59913V16.6112L10.9835 20.6152V12.5848L4.04852 8.59913Z" fill="currentColor"/>
<path d="M16.6596 21.3625C16.5946 21.4032 16.5199 21.4257 16.4433 21.4277C16.3666 21.4297 16.2908 21.4112 16.2238 21.374C16.1567 21.3368 16.1008 21.2824 16.0619 21.2163C16.023 21.1503 16.0024 21.075 16.0024 20.9983V13.9574C16.0024 13.8807 16.023 13.8054 16.0619 13.7394C16.1008 13.6733 16.1567 13.6188 16.2238 13.5817C16.2908 13.5445 16.3666 13.526 16.4433 13.528C16.5199 13.53 16.5946 13.5525 16.6596 13.5931L21.7092 16.7493C21.8328 16.8266 21.9347 16.9339 22.0053 17.0614C22.0759 17.1888 22.113 17.3321 22.113 17.4778C22.113 17.6235 22.0759 17.7668 22.0053 17.8943C21.9347 18.0217 21.8328 18.1291 21.7092 18.2063L16.6596 21.3625Z" stroke="currentColor" stroke-width="2" stroke-linecap="round" stroke-linejoin="round" fill="transparent"/>
</svg>
