<svg width="16" height="16" viewBox="0 0 16 16" fill="none" xmlns="http://www.w3.org/2000/svg">
<path d="M11.153 0.378143V1.3345C11.153 1.42217 11.0758 1.4939 10.9815 1.4939H2.74962C2.6553 1.4939 2.57812 1.42217 2.57812 1.3345V0.378143C2.57812 0.290477 2.6553 0.21875 2.74962 0.21875H10.9815C11.0758 0.21875 11.153 0.290477 11.153 0.378143Z" fill="black"/>
<path d="M1.44846 1.43335L2.40482 1.43335C2.49248 1.43335 2.56421 1.53953 2.56421 1.66931L2.56421 12.9955C2.56421 13.1253 2.49248 13.2314 2.40482 13.2314L1.44846 13.2314C1.36079 13.2314 1.28906 13.1253 1.28906 12.9955L1.28906 1.66931C1.28906 1.53953 1.36079 1.43335 1.44846 1.43335Z" fill="black"/>
<path d="M6.71471 14.0714L5.14509 14.0724L5.14554 4.06111H12.5715V7.64059C12.5715 7.71916 12.6357 7.78345 12.7143 7.78345H13.7143C13.7929 7.78345 13.8572 7.71916 13.8572 7.64059V3.34682C13.8572 3.03075 13.6018 2.77539 13.2857 2.77539H4.43126C4.11519 2.77539 3.85983 3.03075 3.85983 3.34682L3.85938 14.7867C3.85938 15.1028 4.11473 15.3581 4.4308 15.3581L6.71471 15.3571C6.79328 15.3571 6.85756 15.2928 6.85756 15.2142V14.2142C6.85756 14.1357 6.79328 14.0714 6.71471 14.0714ZM14.6728 14.9921L13.0067 13.326C13.4049 12.7992 13.6424 12.1421 13.6424 11.4296C13.6424 9.69386 12.2353 8.28672 10.4996 8.28672C8.76387 8.28672 7.35672 9.69386 7.35672 11.4296C7.35672 13.1653 8.76387 14.5724 10.4996 14.5724C11.1389 14.5724 11.7317 14.3814 12.2282 14.0546L13.9192 15.7456C13.9478 15.7742 13.9835 15.7867 14.0192 15.7867C14.0549 15.7867 14.0924 15.7724 14.1192 15.7456L14.6728 15.1921C14.686 15.179 14.6964 15.1634 14.7036 15.1462C14.7107 15.1291 14.7144 15.1107 14.7144 15.0921C14.7144 15.0735 14.7107 15.0551 14.7036 15.0379C14.6964 15.0208 14.686 15.0052 14.6728 14.9921ZM10.4996 13.4296C9.39422 13.4296 8.49958 12.5349 8.49958 11.4296C8.49958 10.3242 9.39422 9.42957 10.4996 9.42957C11.6049 9.42957 12.4996 10.3242 12.4996 11.4296C12.4996 12.5349 11.6049 13.4296 10.4996 13.4296Z" fill="black"/>
<path fill-rule="evenodd" clip-rule="evenodd" d="M2.56494 1.9873H2.57282V1.49861H3.10962V1.49219H10.982C11.0763 1.49219 11.1535 1.42046 11.1535 1.33279V0.376434C11.1535 0.288768 11.0763 0.217041 10.982 0.217041H3.10962V0.212891H1.85854C1.54247 0.212891 1.28711 0.468248 1.28711 0.784319V1.9873H1.28979L1.28979 12.9938C1.28979 13.1236 1.36152 13.2297 1.44919 13.2297H2.40555C2.49321 13.2297 2.56494 13.1236 2.56494 12.9938L2.56494 1.9873Z" fill="black"/>
</svg>
