<svg viewBox="0 0 16 17" fill="none" xmlns="http://www.w3.org/2000/svg">
<g clip-path="url(#clip0_1_26678)">
<path fill-rule="evenodd" clip-rule="evenodd" d="M2.39375 1.29333C2.02096 1.29333 1.71875 1.59554 1.71875 1.96834V15.7573C1.71875 16.13 2.02096 16.4323 2.39375 16.4323H13.6061C13.9789 16.4323 14.2811 16.13 14.2811 15.7573V1.96833C14.2811 1.59554 13.9788 1.29333 13.6061 1.29333H2.39375ZM2.96875 15.1823V2.54333H13.0311V15.1823H2.96875ZM4.43603 5.2503C4.43603 5.43974 4.51129 5.62142 4.64524 5.75537C4.7792 5.88933 4.96088 5.96458 5.15032 5.96458C5.33976 5.96458 5.52144 5.88933 5.6554 5.75537C5.78935 5.62142 5.86461 5.43974 5.86461 5.2503C5.86461 5.06086 5.78935 4.87917 5.6554 4.74522C5.52144 4.61127 5.33976 4.53601 5.15032 4.53601C4.96088 4.53601 4.7792 4.61127 4.64524 4.74522C4.51129 4.87917 4.43603 5.06086 4.43603 5.2503ZM7.15032 5.82173H11.4207C11.4993 5.82173 11.5636 5.75744 11.5636 5.67887V4.82173C11.5636 4.74315 11.4993 4.67887 11.4207 4.67887H7.15032C7.07175 4.67887 7.00746 4.74315 7.00746 4.82173V5.67887C7.00746 5.75744 7.07175 5.82173 7.15032 5.82173ZM4.64524 9.36792C4.51129 9.23397 4.43603 9.05229 4.43603 8.86285C4.43603 8.67341 4.51129 8.49172 4.64524 8.35777C4.7792 8.22381 4.96088 8.14856 5.15032 8.14856C5.33976 8.14856 5.52144 8.22381 5.6554 8.35777C5.78935 8.49172 5.86461 8.67341 5.86461 8.86285C5.86461 9.05229 5.78935 9.23397 5.6554 9.36792C5.52144 9.50188 5.33976 9.57713 5.15032 9.57713C4.96088 9.57713 4.7792 9.50188 4.64524 9.36792ZM11.4207 9.43427H7.15032C7.07175 9.43427 7.00746 9.36999 7.00746 9.29142V8.43427C7.00746 8.3557 7.07175 8.29142 7.15032 8.29142H11.4207C11.4993 8.29142 11.5636 8.3557 11.5636 8.43427V9.29142C11.5636 9.36999 11.4993 9.43427 11.4207 9.43427ZM4.43603 12.4752C4.43603 12.6646 4.51129 12.8463 4.64524 12.9802C4.7792 13.1142 4.96088 13.1894 5.15032 13.1894C5.33976 13.1894 5.52144 13.1142 5.6554 12.9802C5.78935 12.8463 5.86461 12.6646 5.86461 12.4752C5.86461 12.2857 5.78935 12.104 5.6554 11.9701C5.52144 11.8361 5.33976 11.7609 5.15032 11.7609C4.96088 11.7609 4.7792 11.8361 4.64524 11.9701C4.51129 12.104 4.43603 12.2857 4.43603 12.4752ZM7.15032 13.0466H11.4207C11.4993 13.0466 11.5636 12.9823 11.5636 12.9037V12.0466C11.5636 11.968 11.4993 11.9037 11.4207 11.9037H7.15032C7.07175 11.9037 7.00746 11.968 7.00746 12.0466V12.9037C7.00746 12.9823 7.07175 13.0466 7.15032 13.0466Z" fill="currentColor"/>
</g>
<defs>
<clipPath id="clip0_1_26678">
<rect width="16" height="16" fill="white" transform="translate(0 0.862793)"/>
</clipPath>
</defs>
</svg>
