<svg viewBox="0 0 15 13" fill="none" xmlns="http://www.w3.org/2000/svg">
<path fill-rule="evenodd" clip-rule="evenodd" d="M13.7863 1.7314L12.2869 2.26005V3.36263C12.2869 3.52831 12.1526 3.66263 11.9869 3.66263H11.3869C11.2212 3.66263 11.0869 3.52831 11.0869 3.36263V1.94155C11.0869 1.62348 11.2876 1.34 11.5875 1.23423L13.9869 0.38827C14.4748 0.216239 14.9863 0.578232 14.9863 1.09559L14.9863 12.0925C14.9863 12.6099 14.4748 12.9719 13.9869 12.7998L11.5875 11.9539C11.2876 11.8481 11.0869 11.5646 11.0869 11.2466V9.86034C11.0869 9.69465 11.2212 9.56034 11.3869 9.56034H11.9869C12.1526 9.56034 12.2869 9.69465 12.2869 9.86034V10.9281L13.7863 11.4567L13.7863 1.7314Z" fill="currentColor"/>
<path fill-rule="evenodd" clip-rule="evenodd" d="M1.66828 0.388007C1.18037 0.216021 0.668945 0.578006 0.668945 1.09535L0.668945 12.0923C0.668945 12.6097 1.18036 12.9716 1.66828 12.7997L4.06828 11.9537C4.36828 11.8479 4.56895 11.5644 4.56895 11.2463L4.56895 7.16504H5.86035V9.36845C5.86035 9.78266 6.19614 10.1184 6.61035 10.1184L9.01035 10.1184C9.42457 10.1184 9.76035 9.78266 9.76035 9.36845L9.76035 7.16505H10.57L10.57 8.07977C10.57 8.32417 10.8466 8.46601 11.045 8.32339L13.1141 6.83661C13.2807 6.7169 13.2807 6.46906 13.1141 6.34936L11.045 4.86257C10.8466 4.71995 10.57 4.86179 10.57 5.10619V6.02003H9.76035V3.81934C9.76035 3.40512 9.42456 3.06934 9.01035 3.06934H6.61035C6.19614 3.06934 5.86035 3.40512 5.86035 3.81934L5.86035 6.02002H4.56895L4.56895 1.94133C4.56895 1.62324 4.36828 1.33974 4.06828 1.23399L1.66828 0.388007ZM1.86895 11.4566L1.86895 1.73111L3.36895 2.25985L3.36895 10.9278L1.86895 11.4566ZM7.06035 8.91845V4.26934H8.56035V8.91845L7.06035 8.91845Z" fill="currentColor"/>
</svg>
