<svg width="16" height="17" viewBox="0 0 16 17" fill="none" xmlns="http://www.w3.org/2000/svg">
<path fill-rule="evenodd" clip-rule="evenodd" d="M10.633 7.22025C10.633 7.36508 10.5145 7.48358 10.3697 7.48358H8.60686V9.13922H13.7497V11.6392H14.714C14.7926 11.6392 14.8569 11.7035 14.8569 11.7821V14.9249C14.8569 15.0035 14.7926 15.0678 14.714 15.0678H11.5711C11.4926 15.0678 11.4283 15.0035 11.4283 14.9249V11.7821C11.4283 11.7035 11.4926 11.6392 11.5711 11.6392H12.5354V10.3535H8.60686V11.6392H9.57115C9.64972 11.6392 9.71401 11.7035 9.71401 11.7821V14.9249C9.71401 15.0035 9.64972 15.0678 9.57115 15.0678H6.42829C6.34972 15.0678 6.28544 15.0035 6.28544 14.9249V11.7821C6.28544 11.7035 6.34972 11.6392 6.42829 11.6392H7.39258V10.3535H3.46401V11.6392H4.42829C4.50686 11.6392 4.57115 11.7035 4.57115 11.7821V14.9249C4.57115 15.0035 4.50686 15.0678 4.42829 15.0678H1.28544C1.20686 15.0678 1.14258 15.0035 1.14258 14.9249V11.7821C1.14258 11.7035 1.20686 11.6392 1.28544 11.6392H2.24972V9.13922H7.39258V7.48358H5.62978C5.48495 7.48358 5.36646 7.36508 5.36646 7.22025V2.48037C5.36646 2.33554 5.48495 2.21704 5.62978 2.21704H10.3697C10.5145 2.21704 10.633 2.33554 10.633 2.48037V7.22025ZM6.50171 3.35229V6.34818H9.4976V3.35229H6.50171ZM3.42833 13.8767C3.42833 13.9035 3.40691 13.9249 3.38012 13.9249H2.33191C2.30512 13.9249 2.28369 13.9035 2.28369 13.8767V12.8285C2.28369 12.8017 2.30512 12.7803 2.33191 12.7803H3.38012C3.40691 12.7803 3.42833 12.8017 3.42833 12.8285V13.8767ZM8.57116 13.8767C8.57116 13.9035 8.54973 13.9249 8.52294 13.9249H7.47473C7.44794 13.9249 7.42651 13.9035 7.42651 13.8767V12.8285C7.42651 12.8017 7.44794 12.7803 7.47473 12.7803H8.52294C8.54973 12.7803 8.57116 12.8017 8.57116 12.8285V13.8767ZM13.6658 13.9249C13.6925 13.9249 13.714 13.9035 13.714 13.8767V12.8285C13.714 12.8017 13.6925 12.7803 13.6658 12.7803H12.6175C12.5908 12.7803 12.5693 12.8017 12.5693 12.8285V13.8767C12.5693 13.9035 12.5908 13.9249 12.6175 13.9249H13.6658Z" fill="currentColor"/>
</svg>
