<svg  viewBox="0 0 24 24" fill="none" xmlns="http://www.w3.org/2000/svg">
<g clip-path="url(#clip0_285_22555)">
<mask id="path-1-inside-1_285_22555" fill="white">
<rect x="1.96484" y="2" width="20" height="6" rx="1"/>
</mask>
<rect x="1.96484" y="2" width="20" height="6" rx="1" stroke="currentColor" stroke-width="3.2" mask="url(#path-1-inside-1_285_22555)"/>
<mask id="path-2-inside-2_285_22555" fill="white">
<rect x="1.96484" y="9" width="8" height="6" rx="1"/>
</mask>
<rect x="1.96484" y="9" width="8" height="6" rx="1" stroke="currentColor" stroke-width="3.2" mask="url(#path-2-inside-2_285_22555)"/>
<mask id="path-3-inside-3_285_22555" fill="white">
<rect x="1.96484" y="16" width="6" height="6" rx="1"/>
</mask>
<rect x="1.96484" y="16" width="6" height="6" rx="1" stroke="currentColor" stroke-width="3.2" mask="url(#path-3-inside-3_285_22555)"/>
<path d="M21.4552 15.6772C21.6458 15.753 21.8546 15.6195 21.8656 15.4146L22.0712 11.6081C22.0844 11.364 21.8158 11.2075 21.61 11.3392L17.8622 13.7368C17.6563 13.8686 17.6859 14.178 17.913 14.2683L21.4552 15.6772Z" fill="currentColor"/>
<path d="M16.2814 11.6193C14.8487 11.6193 13.6046 12.434 12.9899 13.6272C12.8634 13.8726 12.5807 14.0113 12.3203 13.9193L11.7546 13.7193C11.4943 13.6273 11.3557 13.3403 11.472 13.0898C12.3135 11.2775 14.1497 10.0193 16.2814 10.0193C18.6976 10.0193 20.7349 11.6354 21.3736 13.8455C21.4503 14.1107 21.2695 14.3733 20.9981 14.4245L20.4085 14.5357C20.1371 14.5869 19.8789 14.4067 19.7913 14.1448C19.3005 12.6771 17.9138 11.6193 16.2814 11.6193Z" fill="currentColor"/>
<path fill-rule="evenodd" clip-rule="evenodd" d="M12.1845 17.1282C12.4538 17.0671 12.7185 17.2377 12.8157 17.4962C13.3423 18.8977 14.6958 19.8946 16.2805 19.8946C17.7132 19.8946 18.9573 19.0799 19.572 17.8867C19.6984 17.6412 19.9812 17.5026 20.2416 17.5946L20.8073 17.7946C21.0676 17.8866 21.2062 18.1736 21.0899 18.4241C20.2484 20.2364 18.4122 21.4946 16.2805 21.4946C13.932 21.4946 11.9418 19.9679 11.2455 17.8534C11.1591 17.5911 11.3301 17.3221 11.5994 17.261L12.1845 17.1282Z" fill="currentColor"/>
<path d="M11.1459 15.7532C10.9553 15.6774 10.7465 15.811 10.7354 16.0158L10.5299 19.8223C10.5167 20.0664 10.7852 20.2229 10.9911 20.0912L14.7389 17.6936C14.9447 17.5619 14.9152 17.2524 14.6881 17.1621L11.1459 15.7532Z" fill="currentColor"/>
</g>
<defs>
<clipPath id="clip0_285_22555">
<rect width="20" height="20" fill="white" transform="translate(2 2)"/>
</clipPath>
</defs>
</svg>
