<svg  viewBox="0 0 24 24" fill="none" xmlns="http://www.w3.org/2000/svg">
<path d="M6.21345 5.14272C6.09559 5.14272 5.99916 5.23915 5.99916 5.357V6.64272C5.99916 6.76057 6.09559 6.857 6.21345 6.857H16.4992C16.617 6.857 16.7134 6.76057 16.7134 6.64272V5.357C16.7134 5.23915 16.617 5.14272 16.4992 5.14272H6.21345ZM11.3563 10.4999V9.21415C11.3563 9.09629 11.2599 8.99986 11.142 8.99986H6.21345C6.09559 8.99986 5.99916 9.09629 5.99916 9.21415V10.4999C5.99916 10.6177 6.09559 10.7141 6.21345 10.7141H11.142C11.2599 10.7141 11.3563 10.6177 11.3563 10.4999ZM10.0706 21.107H3.85631V2.24986H18.8563V11.4641C18.8563 11.582 18.9527 11.6784 19.0706 11.6784H20.5706C20.6884 11.6784 20.7849 11.582 20.7849 11.4641V1.17843C20.7849 0.704325 20.4018 0.321289 19.9277 0.321289H2.78488C2.31077 0.321289 1.92773 0.704325 1.92773 1.17843V22.1784C1.92773 22.6525 2.31077 23.0356 2.78488 23.0356H10.0706C10.1884 23.0356 10.2849 22.9391 10.2849 22.8213V21.3213C10.2849 21.2034 10.1884 21.107 10.0706 21.107Z" fill="currentColor"/>
<path d="M13.9526 15.5625C13.2937 16.2214 12.908 17.0866 12.8597 18.0107C12.8544 18.1259 12.7606 18.2143 12.6455 18.2143H11.3571C11.2365 18.2143 11.1374 18.1125 11.1428 17.992C11.2606 15.0777 13.6633 12.75 16.6071 12.75C18.324 12.75 19.8589 13.5429 20.8606 14.783L21.4044 14.3598C21.4362 14.3352 21.4743 14.32 21.5144 14.316C21.5545 14.312 21.5948 14.3193 21.6309 14.3372C21.667 14.3551 21.6972 14.3828 21.7183 14.4171C21.7394 14.4514 21.7503 14.491 21.7499 14.5312L21.7339 17.0866C21.7312 17.2232 21.6026 17.325 21.4687 17.2929L18.9696 16.6902C18.9304 16.6806 18.8947 16.6602 18.8666 16.6313C18.8385 16.6023 18.8191 16.566 18.8107 16.5266C18.8023 16.4871 18.8053 16.4461 18.8191 16.4082C18.833 16.3704 18.8573 16.3372 18.8892 16.3125L19.508 15.833C19.4303 15.7393 19.3472 15.6482 19.2615 15.5625C18.5517 14.8554 17.6089 14.4643 16.6071 14.4643C15.6133 14.4643 14.6544 14.8607 13.9526 15.5625Z" fill="currentColor"/>
<path d="M20.5687 18.2143H21.8571C21.9776 18.2143 22.0767 18.3161 22.0714 18.4366C21.9535 21.3509 19.5508 23.6786 16.6071 23.6786C14.8901 23.6786 13.3553 22.8857 12.3535 21.6455L11.8098 22.0688C11.7779 22.0934 11.7398 22.1086 11.6997 22.1126C11.6597 22.1166 11.6193 22.1092 11.5833 22.0913C11.5472 22.0734 11.5169 22.0458 11.4958 22.0114C11.4748 21.9771 11.4638 21.9376 11.4642 21.8973L11.4803 19.342C11.483 19.2054 11.6115 19.1036 11.7455 19.1357L14.2446 19.7384C14.2838 19.7479 14.3195 19.7684 14.3476 19.7973C14.3757 19.8263 14.395 19.8625 14.4034 19.902C14.4118 19.9414 14.4089 19.9825 14.395 20.0203C14.3811 20.0582 14.3568 20.0914 14.3249 20.1161L13.7062 20.5955C13.7839 20.6893 13.8669 20.7804 13.9526 20.8661C14.6624 21.5732 15.6053 21.9643 16.6071 21.9643C17.6008 21.9643 18.5597 21.5679 19.2615 20.8661C19.9205 20.2071 20.3062 19.342 20.3544 18.4179C20.3598 18.3027 20.4535 18.2143 20.5687 18.2143Z" fill="currentColor"/>
</svg>
