<svg  viewBox="0 0 24 24" fill="none" xmlns="http://www.w3.org/2000/svg">
<path fill-rule="evenodd" clip-rule="evenodd" d="M13.0497 1.02164C12.4224 0.659454 11.6495 0.659454 11.0221 1.02164L3.03525 5.63287C2.40793 5.99506 2.02148 6.6644 2.02148 7.38876V16.6112C2.02148 17.3356 2.40793 18.0049 3.03525 18.3671L11.0221 22.9784C11.2129 23.0885 11.4171 23.1651 11.6266 23.2083C11.7424 23.2542 11.8687 23.2795 12.0008 23.2795C12.5614 23.2795 13.0158 22.8251 13.0158 22.2645V22.1853H13.0176V20.6557L13.0158 20.6567V19.2372C13.0158 19.2055 13.0144 19.1742 13.0116 19.1433V12.5845L20.0228 8.55509V9.02133C20.0216 9.04152 20.021 9.06188 20.021 9.08238V11.2054C20.021 11.766 20.4754 12.2204 21.036 12.2204C21.5966 12.2204 22.051 11.766 22.051 11.2054V9.08238C22.051 9.06996 22.0508 9.05759 22.0503 9.04528V7.38876C22.0503 6.6644 21.6639 5.99506 21.0366 5.63287L13.0497 1.02164ZM19.0053 6.80133L12.0359 2.77753L5.02826 6.8234L11.9976 10.8288L19.0053 6.80133ZM4.04901 8.59913V16.6112L10.984 20.6152V12.5848L4.04901 8.59913Z" fill="currentColor"/>
<path d="M16.6591 21.3625C16.5941 21.4032 16.5194 21.4257 16.4428 21.4277C16.3661 21.4297 16.2903 21.4112 16.2233 21.374C16.1562 21.3368 16.1003 21.2824 16.0614 21.2163C16.0225 21.1503 16.002 21.075 16.002 20.9983V13.9574C16.002 13.8807 16.0225 13.8054 16.0614 13.7394C16.1003 13.6733 16.1562 13.6188 16.2233 13.5817C16.2903 13.5445 16.3661 13.526 16.4428 13.528C16.5194 13.53 16.5941 13.5525 16.6591 13.5931L21.7087 16.7493C21.8323 16.8266 21.9342 16.9339 22.0048 17.0614C22.0755 17.1888 22.1125 17.3321 22.1125 17.4778C22.1125 17.6235 22.0755 17.7668 22.0048 17.8943C21.9342 18.0217 21.8323 18.1291 21.7087 18.2063L16.6591 21.3625Z" stroke="currentColor" stroke-width="2" stroke-linecap="round" stroke-linejoin="round"/>
</svg>
