<svg  viewBox="0 0 24 24" fill="none" xmlns="http://www.w3.org/2000/svg">
<path d="M19.5 1.5H4.5C4.08516 1.5 3.75 1.83516 3.75 2.25V21.75C3.75 22.1648 4.08516 22.5 4.5 22.5H19.5C19.9148 22.5 20.25 22.1648 20.25 21.75V2.25C20.25 1.83516 19.9148 1.5 19.5 1.5ZM5.4375 3.1875H18.5625V8.0625H5.4375V3.1875ZM18.5625 14.4375H5.4375V9.5625H18.5625V14.4375ZM18.5625 20.8125H5.4375V15.9375H18.5625V20.8125ZM11.625 4.875H7.3125C7.20937 4.875 7.125 4.95937 7.125 5.0625V6.1875C7.125 6.29063 7.20937 6.375 7.3125 6.375H11.625C11.7281 6.375 11.8125 6.29063 11.8125 6.1875V5.0625C11.8125 4.95937 11.7281 4.875 11.625 4.875ZM7.3125 12.75H11.625C11.7281 12.75 11.8125 12.6656 11.8125 12.5625V11.4375C11.8125 11.3344 11.7281 11.25 11.625 11.25H7.3125C7.20937 11.25 7.125 11.3344 7.125 11.4375V12.5625C7.125 12.6656 7.20937 12.75 7.3125 12.75ZM15 18.4688C15 18.7174 15.0988 18.9558 15.2746 19.1317C15.4504 19.3075 15.6889 19.4062 15.9375 19.4062C16.1861 19.4062 16.4246 19.3075 16.6004 19.1317C16.7762 18.9558 16.875 18.7174 16.875 18.4688C16.875 18.2201 16.7762 17.9817 16.6004 17.8058C16.4246 17.63 16.1861 17.5312 15.9375 17.5312C15.6889 17.5312 15.4504 17.63 15.2746 17.8058C15.0988 17.9817 15 18.2201 15 18.4688V18.4688Z" fill="currentColor"/>
</svg>
