<svg width="17" height="17" viewBox="0 0 17 17" fill="none" xmlns="http://www.w3.org/2000/svg">
<path fill-rule="evenodd" clip-rule="evenodd" d="M13.4941 12.3057C14.0464 12.3057 14.4941 12.7534 14.4941 13.3057C14.4941 13.8579 14.0464 14.3057 13.4941 14.3057C12.9419 14.3057 12.4941 13.8579 12.4941 13.3057C12.4941 12.7534 12.9419 12.3057 13.4941 12.3057ZM15.4941 13.3057C15.4941 12.2011 14.5987 11.3057 13.4941 11.3057C12.3896 11.3057 11.4941 12.2011 11.4941 13.3057C11.4941 14.4102 12.3896 15.3057 13.4941 15.3057C14.5987 15.3057 15.4941 14.4102 15.4941 13.3057Z" fill="currentColor"/>
<path fill-rule="evenodd" clip-rule="evenodd" d="M4.16113 2.97253C4.71342 2.97253 5.16113 3.42025 5.16113 3.97253C5.16113 4.52482 4.71342 4.97253 4.16113 4.97253C3.60885 4.97253 3.16113 4.52482 3.16113 3.97253C3.16113 3.42025 3.60885 2.97253 4.16113 2.97253ZM6.16113 3.97253C6.16113 2.86796 5.2657 1.97253 4.16113 1.97253C3.05656 1.97253 2.16113 2.86796 2.16113 3.97253C2.16113 5.0771 3.05656 5.97253 4.16113 5.97253C5.2657 5.97253 6.16113 5.0771 6.16113 3.97253Z" fill="currentColor"/>
<path fill-rule="evenodd" clip-rule="evenodd" d="M12.5984 4.57268C13.0809 4.57268 13.5404 4.75924 13.8766 5.08622C14.2123 5.41264 14.3977 5.85174 14.3977 6.30593C14.3977 6.76013 14.2123 7.19923 13.8766 7.52565C13.5404 7.85262 13.0809 8.03918 12.5984 8.03918H5.05773C4.26759 8.03918 3.50655 8.34427 2.94287 8.89244C2.37862 9.44115 2.05844 10.189 2.05844 10.9724C2.05844 11.7559 2.37862 12.5037 2.94287 13.0524C3.50655 13.6006 4.26759 13.9057 5.05773 13.9057H11.9032C12.2346 13.9057 12.5032 13.6371 12.5032 13.3057C12.5032 12.9743 12.2346 12.7057 11.9032 12.7057H5.05773C4.57521 12.7057 4.11571 12.5191 3.77948 12.1922C3.44382 11.8657 3.25844 11.4266 3.25844 10.9724C3.25844 10.5182 3.44382 10.0791 3.77948 9.75272C4.11571 9.42575 4.57521 9.23918 5.05773 9.23918H12.5984C13.3885 9.23918 14.1495 8.9341 14.7132 8.38593C15.2775 7.83721 15.5977 7.08937 15.5977 6.30593C15.5977 5.5225 15.2775 4.77465 14.7132 4.22593C14.1495 3.67777 13.3885 3.37268 12.5984 3.37268H5.85457C5.5232 3.37268 5.25457 3.64131 5.25457 3.97268C5.25457 4.30405 5.5232 4.57268 5.85457 4.57268H12.5984Z" fill="currentColor"/>
</svg>
