<svg width="24" height="24" viewBox="0 0 24 24" fill="none" xmlns="http://www.w3.org/2000/svg">
<path fill-rule="evenodd" clip-rule="evenodd" d="M2.79978 2H21.2002C21.6419 2 22 2.35694 22 2.79978V11.178H20.1035V3.89938H3.91321V20.0979H10.4258V22H2.79978C2.35694 22 2 21.6431 2 21.2002V2.79978C2 2.35694 2.35694 2 2.79978 2Z" fill="currentColor"/>
<path d="M7.99215 6H6.40406C6.31655 6 6.24561 6.08939 6.24561 6.19967V17.8003C6.24561 17.9106 6.31655 18 6.40406 18H7.99215C8.07966 18 8.15061 17.9106 8.15061 17.8003V6.19967C8.15061 6.08939 8.07966 6 7.99215 6Z" fill="currentColor"/>
<path d="M17.5937 5.99976H16.0056C15.9181 5.99976 15.8472 6.08915 15.8472 6.19942V10.3001C15.8472 10.4104 15.9181 10.4998 16.0056 10.4998H17.5937C17.6812 10.4998 17.7522 10.4104 17.7522 10.3001V6.19942C17.7522 6.08915 17.6812 5.99976 17.5937 5.99976Z" fill="currentColor"/>
<path d="M21.8422 7.05688H20.2542C20.1666 7.05688 20.0957 7.14628 20.0957 7.25655V11.3572C20.0957 11.4675 20.1666 11.5569 20.2542 11.5569H21.8422C21.9298 11.5569 22.0007 11.4675 22.0007 11.3572V7.25655C22.0007 7.14628 21.9298 7.05688 21.8422 7.05688Z" fill="currentColor"/>
<path d="M11 21.8418L11 20.2537C11 20.1662 10.9106 20.0952 10.8003 20.0952L6.69967 20.0952C6.58939 20.0952 6.5 20.1662 6.5 20.2537L6.5 21.8418C6.5 21.9293 6.58939 22.0002 6.69967 22.0002L10.8003 22.0002C10.9106 22.0002 11 21.9293 11 21.8418Z" fill="currentColor"/>
<path d="M12.7934 5.99976H11.2053C11.1178 5.99976 11.0469 6.08915 11.0469 6.19942V11.8001C11.0469 11.9104 11.1178 11.9998 11.2053 11.9998H12.7934C12.8809 11.9998 12.9519 11.9104 12.9519 11.8001V6.19942C12.9519 6.08915 12.8809 5.99976 12.7934 5.99976Z" fill="currentColor"/>
<g clip-path="url(#clip0_285_22565)">
<path d="M21.2455 16.3588C21.4479 16.392 21.6233 16.2168 21.5902 16.0144L21.0146 12.4902C20.9752 12.249 20.6794 12.1536 20.5065 12.3264L17.5584 15.272C17.3855 15.4448 17.4807 15.7407 17.7218 15.7803L21.2455 16.3588Z" fill="currentColor"/>
<path fill-rule="evenodd" clip-rule="evenodd" d="M16.5006 14.0075C14.5717 14.0075 13.008 15.5712 13.008 17.5001C13.008 19.429 14.5717 20.9927 16.5006 20.9927C17.931 20.9927 19.1623 20.1321 19.7019 18.8993C19.8126 18.6463 20.0846 18.4876 20.3508 18.5608L21.1223 18.7727C21.3885 18.8459 21.5473 19.1223 21.4491 19.3804C20.6909 21.3746 18.7623 22.7927 16.5006 22.7927C13.5776 22.7927 11.208 20.4231 11.208 17.5001C11.208 14.5771 13.5776 12.2075 16.5006 12.2075C17.8821 12.2075 19.1408 12.7378 20.0826 13.6039C20.2859 13.7908 20.2679 14.1089 20.0627 14.2938L19.4682 14.8291C19.2631 15.0139 18.9489 14.9941 18.7369 14.8172C18.1305 14.311 17.3514 14.0075 16.5006 14.0075Z" fill="currentColor"/>
</g>
<defs>
<clipPath id="clip0_285_22565">
<rect width="11" height="11" fill="white" transform="translate(11 12)"/>
</clipPath>
</defs>
</svg>
