<svg viewBox="0 0 16 17" fill="none" xmlns="http://www.w3.org/2000/svg">
<path d="M8.10606 8.06808C8.09353 8.05207 8.07752 8.03912 8.05925 8.03022C8.04098 8.02132 8.02092 8.01669 8.00059 8.01669C7.98026 8.01669 7.9602 8.02132 7.94193 8.03022C7.92366 8.03912 7.90765 8.05207 7.89512 8.06808L6.02013 10.4403C6.00467 10.46 5.99508 10.4837 5.99245 10.5087C5.98982 10.5336 5.99426 10.5588 6.00527 10.5813C6.01627 10.6038 6.03339 10.6228 6.05467 10.636C6.07594 10.6493 6.10052 10.6563 6.1256 10.6563H7.36276V14.7143C7.36276 14.788 7.42303 14.8482 7.49669 14.8482H8.50115C8.57481 14.8482 8.63508 14.788 8.63508 14.7143V10.6579H9.87559C9.98775 10.6579 10.0497 10.529 9.98105 10.442L8.10606 8.06808Z" fill="currentColor"/>
<path d="M13.0123 6.5223C12.2455 4.49998 10.2919 3.06192 8.00335 3.06192C5.71484 3.06192 3.76116 4.4983 2.99442 6.52063C1.55971 6.8973 0.5 8.20478 0.5 9.75835C0.5 11.6082 1.99833 13.1066 3.84654 13.1066H4.51786C4.59152 13.1066 4.65179 13.0463 4.65179 12.9726V11.9682C4.65179 11.8945 4.59152 11.8342 4.51786 11.8342H3.84654C3.28237 11.8342 2.75167 11.6099 2.35658 11.2031C1.96317 10.798 1.75391 10.2522 1.77232 9.68636C1.78739 9.2444 1.93806 8.82922 2.21094 8.47933C2.49051 8.12275 2.88225 7.86326 3.31752 7.74775L3.95201 7.58201L4.18471 6.96929C4.32868 6.58759 4.52958 6.23101 4.78237 5.9079C5.03193 5.58766 5.32755 5.30614 5.6596 5.07252C6.34766 4.58871 7.15792 4.33257 8.00335 4.33257C8.84877 4.33257 9.65904 4.58871 10.3471 5.07252C10.6802 5.3069 10.9749 5.58815 11.2243 5.9079C11.4771 6.23101 11.678 6.58926 11.822 6.96929L12.053 7.58034L12.6858 7.74775C13.5932 7.99217 14.2277 8.8175 14.2277 9.75835C14.2277 10.3125 14.0117 10.8348 13.62 11.2265C13.4279 11.4198 13.1993 11.573 12.9476 11.6773C12.6959 11.7816 12.4259 11.835 12.1535 11.8342H11.4821C11.4085 11.8342 11.3482 11.8945 11.3482 11.9682V12.9726C11.3482 13.0463 11.4085 13.1066 11.4821 13.1066H12.1535C14.0017 13.1066 15.5 11.6082 15.5 9.75835C15.5 8.20645 14.4436 6.90065 13.0123 6.5223Z" fill="currentColor"/>
</svg>
