<?xml version="1.0" encoding="UTF-8"?>
<svg  fill="none" version="1.1" viewBox="0 0 24 24" xmlns="http://www.w3.org/2000/svg">
 <g id="Start Icon" stroke="#00BD9B" stroke-linecap="round" stroke-linejoin="round" stroke-width="2">
  <path id="Vector" d="m10 13c0.4295 0.5741 0.9774 1.0491 1.6066 1.3929 0.6291 0.3438 1.3249 0.5482 2.0401 0.5994 0.7151 0.0512 1.4329-0.052 2.1046-0.3026 0.6718-0.2505 1.2818-0.6427 1.7887-1.1497l3-3c0.9108-0.94305 1.4148-2.2061 1.4034-3.517s-0.5373-2.565-1.4643-3.4921-2.1811-1.4529-3.4921-1.4643c-1.311-0.0114-2.574 0.49258-3.517 1.4034l-1.72 1.71"/>
  <path d="m14 11c-0.4295-0.5741-0.9774-1.0492-1.6066-1.3929-0.6292-0.34376-1.325-0.54818-2.0401-0.5994-0.71514-0.05122-1.4329 0.05197-2.1047 0.30255-0.67176 0.25059-1.2818 0.64272-1.7886 1.1498l-3 3c-0.91079 0.943-1.4148 2.206-1.4034 3.517 0.01139 1.311 0.53723 2.5651 1.4643 3.4921 0.92704 0.9271 2.1811 1.4529 3.4921 1.4643s2.574-0.4926 3.517-1.4034l1.71-1.71"/>
 </g>
</svg>
