<svg width="17" height="18" viewBox="0 0 17 18" fill="none" xmlns="http://www.w3.org/2000/svg">
<g clip-path="url(#clip0_142_1142)">
<path d="M8.5 0.5C3.80603 0.5 0 4.30603 0 9C0 13.694 3.80603 17.5 8.5 17.5C13.194 17.5 17 13.694 17 9C17 4.30603 13.194 0.5 8.5 0.5Z" fill="white"/>
<path d="M12.4165 11.6867C12.2033 11.2095 11.8939 10.7761 11.5055 10.4106C11.1183 10.044 10.6596 9.75176 10.1548 9.54994C10.1503 9.5478 10.1457 9.54673 10.1412 9.5446C10.8454 9.06407 11.3032 8.28134 11.3032 7.39824C11.3032 5.9353 10.0485 4.75 8.5 4.75C6.95147 4.75 5.69683 5.9353 5.69683 7.39824C5.69683 8.28134 6.1546 9.06407 6.85879 9.54567C6.85427 9.5478 6.84975 9.54887 6.84522 9.551C6.33884 9.75283 5.88446 10.0422 5.4945 10.4117C5.10648 10.7775 4.7971 11.2108 4.58347 11.6878C4.3736 12.1547 4.26041 12.6553 4.25003 13.1624C4.24973 13.1738 4.25184 13.1852 4.25625 13.1958C4.26066 13.2064 4.26727 13.2161 4.2757 13.2242C4.28413 13.2324 4.2942 13.2389 4.30532 13.2433C4.31644 13.2477 4.32839 13.25 4.34045 13.25H5.01864C5.06837 13.25 5.10793 13.2126 5.10907 13.1667C5.13167 12.3423 5.48207 11.5703 6.10148 10.9851C6.74237 10.3796 7.59349 10.0465 8.5 10.0465C9.40651 10.0465 10.2576 10.3796 10.8985 10.9851C11.5179 11.5703 11.8683 12.3423 11.8909 13.1667C11.8921 13.2137 11.9316 13.25 11.9814 13.25H12.6595C12.6716 13.25 12.6836 13.2477 12.6947 13.2433C12.7058 13.2389 12.7159 13.2324 12.7243 13.2242C12.7327 13.2161 12.7393 13.2064 12.7437 13.1958C12.7482 13.1852 12.7503 13.1738 12.75 13.1624C12.7387 12.652 12.6268 12.1555 12.4165 11.6867ZM8.5 9.23492C7.98119 9.23492 7.49289 9.04378 7.12554 8.69673C6.75819 8.34969 6.55586 7.88838 6.55586 7.39824C6.55586 6.9081 6.75819 6.4468 7.12554 6.09975C7.49289 5.7527 7.98119 5.56156 8.5 5.56156C9.01881 5.56156 9.50711 5.7527 9.87446 6.09975C10.2418 6.4468 10.4441 6.9081 10.4441 7.39824C10.4441 7.88838 10.2418 8.34969 9.87446 8.69673C9.50711 9.04378 9.01881 9.23492 8.5 9.23492Z" fill="currentColor"/>
</g>
<defs>
<clipPath id="clip0_142_1142">
<rect width="17" height="17" fill="white" transform="translate(0 0.5)"/>
</clipPath>
</defs>
</svg>
