<?xml version="1.0" encoding="UTF-8"?>
<svg version="1.1" viewBox="0 0 72 9.2" xmlns="http://www.w3.org/2000/svg" xmlns:cc="http://creativecommons.org/ns#" xmlns:dc="http://purl.org/dc/elements/1.1/" xmlns:rdf="http://www.w3.org/1999/02/22-rdf-syntax-ns#">
<title>Dell Technologies logo</title>
 <path d="m28.1 0.857v-0.291l-0.125-0.083h-4.98l-0.083 0.083v0.291l0.083 0.083h2.12l0.083 0.083v6.06l0.083 0.083h0.374l0.083-0.083v-6.02l0.083-0.083h2.16l0.125-0.124zm1.12 1.45c-1.33 0-2.12 0.954-2.12 2.32v0.209c0 1.33 0.665 2.49 2.2 2.49 1.33 0 1.83-0.872 1.91-1.45l-0.082-0.082h-0.375l-0.082 0.082c-0.208 0.581-0.583 0.955-1.33 0.955-1.25 0-1.62-1.16-1.62-1.74l0.084-0.082h3.45l0.084-0.084v-0.291c0-1.37-0.747-2.32-2.12-2.32zm0 0.498c0.581 0 0.964 0.239 1.2 0.561 0.239 0.322 0.332 0.726 0.332 1.06l-0.082 0.084h-2.91l-0.084-0.084c0-0.332 0.0933-0.737 0.332-1.06 0.239-0.322 0.624-0.561 1.21-0.561zm3.07 1.99c0-1.33 0.664-2.03 1.62-2.03 0.955 0 1.33 0.581 1.45 1.16l0.083 0.083h0.415l0.083-0.083c-0.083-0.955-0.872-1.62-2.03-1.62-1.25 0-2.2 0.789-2.2 2.49 0 1.74 0.955 2.49 2.2 2.49 1.16 0 1.91-0.664 2.03-1.62l-0.083-0.083h-0.374l-0.083 0.083c-0.083 0.581-0.498 1.16-1.45 1.16-0.955 0-1.66-0.664-1.66-2.03zm8.3 2.33v-2.91c0-1.25-0.664-1.91-1.74-1.91-0.664 0-1.25 0.291-1.54 0.789h-0.083v-2.49l-0.125-0.124h-0.374l-0.083 0.083v6.56l0.083 0.083h0.374l0.083-0.083v-2.62c0-1.08 0.498-1.74 1.54-1.74 0.789 0 1.25 0.498 1.25 1.45v2.91l0.083 0.083h0.374l0.166-0.083zm4.9 0v-2.91c0-1.25-0.664-1.91-1.74-1.91-0.664 0-1.25 0.291-1.54 0.789h-0.083l-0.083-0.581-0.083-0.083h-0.291l-0.083 0.083v4.61l0.083 0.083h0.374l0.083-0.083v-2.62c0-1.08 0.498-1.74 1.54-1.74 0.789 0 1.25 0.498 1.25 1.45v2.91l0.083 0.083h0.415l0.083-0.083zm2.78-4.78c-1.25 0-2.2 0.873-2.2 2.49 0 1.62 0.956 2.49 2.2 2.49s2.2-0.871 2.2-2.49c0-1.62-0.956-2.49-2.2-2.49zm0 0.457c0.478 0 0.882 0.198 1.17 0.551 0.285 0.353 0.451 0.862 0.451 1.48 0 0.623-0.166 1.13-0.451 1.48-0.285 0.353-0.69 0.549-1.17 0.549-0.478 0-0.882-0.196-1.17-0.549-0.285-0.353-0.451-0.862-0.451-1.48 0-0.644 0.166-1.15 0.451-1.5 0.285-0.348 0.69-0.535 1.17-0.535zm3.49 4.32v-6.56l-0.125-0.083h-0.374l-0.083 0.083v6.56l0.083 0.083h0.374l0.125-0.083zm2.87-4.78c-1.25 0-2.2 0.873-2.2 2.49 0 1.62 0.956 2.49 2.2 2.49s2.2-0.871 2.2-2.49c0-1.62-0.954-2.49-2.2-2.49zm0 0.457c0.478 0 0.881 0.198 1.17 0.551 0.285 0.353 0.453 0.862 0.453 1.48 0 0.623-0.168 1.13-0.453 1.48-0.285 0.353-0.689 0.549-1.17 0.549-0.478 0-0.882-0.196-1.17-0.549-0.287-0.353-0.455-0.862-0.455-1.48 0-0.644 0.168-1.15 0.453-1.5 0.285-0.348 0.69-0.535 1.17-0.535zm4.73-0.498c-1.33 0-2.04 1.08-2.04 2.49 0 1.45 0.665 2.49 2.04 2.49 0.872 0 1.33-0.374 1.54-0.789v0.041c0 1.25-0.29 2.2-1.45 2.2-0.872 0-1.16-0.373-1.25-0.871l-0.084-0.084h-0.373l-0.084 0.084c0.083 0.789 0.666 1.33 1.83 1.33 1.25 0 2.04-0.789 2.04-2.7v-3.99l-0.084-0.082h-0.291l-0.082 0.082-0.084 0.582h-0.082c-0.208-0.374-0.665-0.789-1.54-0.789zm0 0.457c0.478 0 0.862 0.165 1.13 0.502 0.265 0.337 0.41 0.846 0.41 1.53 0 0.685-0.145 1.19-0.41 1.53-0.265 0.337-0.649 0.504-1.13 0.504-0.478 0-0.862-0.167-1.13-0.504-0.265-0.337-0.408-0.846-0.408-1.53 0-0.664 0.144-1.17 0.408-1.52 0.265-0.343 0.649-0.518 1.13-0.518zm3.65-1.2v-0.581l-0.083-0.083h-0.374l-0.125 0.083v0.581l0.083 0.083h0.374l0.125-0.083zm0 5.56v-4.61l-0.083-0.083h-0.374l-0.125 0.083v4.61l0.083 0.083h0.374l0.125-0.083zm2.78-4.82c-1.33 0-2.12 0.954-2.12 2.32v0.209c0 1.33 0.665 2.49 2.2 2.49 1.33 0 1.83-0.872 1.91-1.45l-0.084-0.082h-0.373l-0.084 0.082c-0.208 0.581-0.581 0.955-1.33 0.955-1.25 0-1.62-1.16-1.62-1.74l0.084-0.082h3.45l0.084-0.084v-0.291c0-1.33-0.79-2.32-2.12-2.32zm0 0.498c0.581 0 0.966 0.239 1.21 0.561 0.239 0.322 0.332 0.726 0.332 1.06l-0.084 0.084h-2.91l-0.082-0.084c0-0.332 0.0933-0.737 0.332-1.06 0.239-0.322 0.622-0.561 1.2-0.561zm6.19 3.16c0-0.872-0.498-1.25-1.45-1.45-0.955-0.208-1.54-0.291-1.54-0.955 0-0.498 0.374-0.789 1.08-0.789 0.872 0 1.16 0.374 1.16 0.872l0.083 0.083h0.374l0.0831-0.083c0-0.955-0.789-1.33-1.74-1.33-1.08 0-1.62 0.581-1.62 1.25 0 0.789 0.581 1.16 1.54 1.33 0.955 0.208 1.45 0.291 1.45 1.08 0 0.498-0.291 0.872-1.25 0.872-0.872 0-1.25-0.498-1.25-1.08l-0.0831-0.083h-0.374l-0.0831 0.083c0 0.872 0.664 1.54 1.83 1.54 1.2 0.042 1.79-0.54 1.79-1.33z" fill="#808080"/>
 <path d="m22.9 5.79v1.37h-4.32v-6.78h1.57v5.4h2.75zm-13.1-5.79-3.83 2.95c-0.393-1.47-1.67-2.55-3.24-2.55h-2.75v6.78h2.75c1.57 0 2.95-1.08 3.24-2.55l3.83 2.95 3.83-2.95v2.55h4.32v-1.38h-2.85v-5.4h-1.57v2.55l-3.63 2.95-0.785-0.688 1.77-1.38 1.87-1.47-1.08-0.883-3.63 2.85-0.785-0.688 3.63-2.75-1.08-0.883h-0.0019zm-8.35 1.77h1.18c0.245 0 0.486 0.055 0.707 0.156 0.221 0.101 0.424 0.249 0.596 0.434 0.172 0.184 0.312 0.404 0.41 0.652 0.0982 0.249 0.152 0.526 0.152 0.82 0 0.27-0.0481 0.533-0.139 0.777-0.0906 0.244-0.223 0.468-0.389 0.658-0.166 0.19-0.364 0.346-0.59 0.455-0.226 0.109-0.478 0.17-0.748 0.17h-1.18v-4.12z" fill="#007db8"/>
</svg>
