<svg width="32" height="32" viewBox="0 0 32 32" fill="none" xmlns="http://www.w3.org/2000/svg">
<path d="M15.0003 13.5392V16.5714H11.9825C11.836 16.5714 11.7146 16.6821 11.7146 16.8214V18.3214C11.7146 18.4571 11.836 18.5714 11.9825 18.5714H15.0003V21.6035C15.0003 21.7428 15.1146 21.8571 15.2503 21.8571H16.7503C16.8896 21.8571 17.0003 21.7428 17.0003 21.6035V18.5714H20.0182C20.1646 18.5714 20.286 18.4571 20.286 18.3214V16.8214C20.286 16.6821 20.1646 16.5714 20.0182 16.5714H17.0003V13.5392C17.0003 13.3999 16.8896 13.2856 16.7503 13.2856H15.2503C15.1146 13.2856 15.0003 13.3999 15.0003 13.5392ZM29.1432 8.37136H16.3217L12.1325 4.36422C12.0792 4.31432 12.009 4.28627 11.936 4.28564H2.85746C2.22531 4.28564 1.7146 4.79636 1.7146 5.4285V26.5714C1.7146 27.2035 2.22531 27.7142 2.85746 27.7142H29.1432C29.7753 27.7142 30.286 27.2035 30.286 26.5714V9.51422C30.286 8.88207 29.7753 8.37136 29.1432 8.37136ZM27.7146 25.1428H4.28603V6.85707H11.0182L15.2896 10.9428H27.7146V25.1428Z" fill="currentColor"/>
</svg>
