<svg class="svg-icon" style="width: 3.6552734375em; height: 1em;vertical-align: middle;fill: currentColor;overflow: hidden;" viewBox="0 0 3743 1024" version="1.1" xmlns="http://www.w3.org/2000/svg"><path d="M521.417062 0.000845c-70.383342 0-138.593614 13.76278-202.940649 40.986526a518.156611 518.156611 0 0 0-165.756996 111.732046 521.126474 521.126474 0 0 0-111.768264 165.756996A518.555007 518.555007 0 0 0 0.000845 521.417062c0 40.201806 4.551376 80.282886 13.642054 119.156704a519.581179 519.581179 0 0 0 38.994545 109.498613c31.388797 64.226309 82.33523 128.331891 139.921601 176.380897 37.545831-20.523445 58.793632-43.21996 63.2605-67.365189 4.466867-23.300146-5.794855-48.290458-32.113155-78.713446-62.415417-71.590603-96.701641-163.583925-96.701641-258.957579 0-217.427786 176.863801-394.412313 394.412313-394.412313h3.621784c217.427786 0 394.412313 176.984527 394.412313 394.412313 0 95.373654-34.406951 187.366976-96.701641 258.836853-26.076847 30.302262-36.580022 56.379109-32.113155 79.799981 4.70832 24.265955 26.076847 46.600292 63.2605 66.39938 57.586371-47.928279 108.532804-112.033862 139.921601-176.380897 17.022386-34.889856 30.181536-71.71133 38.994545-109.498613 9.054461-38.873818 13.642054-78.954898 13.642054-119.156704 0-70.262616-13.76278-138.593614-41.046889-202.940649a520.655642 520.655642 0 0 0-111.671684-165.756996A520.812586 520.812586 0 0 0 727.979494 40.987371 518.373918 518.373918 0 0 0 525.038846 0.000845h-3.621784z m0 210.908574c-14.72859 0-29.457179 1.207261-43.823591 3.018154-42.374877 6.036307-83.90467 21.247801-120.243239 43.82359a313.948338 313.948338 0 0 0-89.095895 83.90467 313.501651 313.501651 0 0 0-50.584254 115.53492c-9.416639 44.789399-8.813009 91.872596 1.690166 136.299817 9.778818 40.805437 28.129192 80.16216 53.24023 113.603302 6.760664 9.054461 14.245685 17.384565 22.21361 26.076847l8.088652 8.813008 1.207261 1.207262c27.646287 32.113154 41.771246 66.761558 41.771246 102.858674 0 54.568217-30.302262 104.669567-77.989089 130.384236 27.646287 15.33222 56.862014 28.249918 86.802098 38.270188 10.02027 3.259606 20.161266 6.398486 30.302262 9.054461 6.036307-3.74251 26.680478-19.195457 46.96247-47.203923 19.316183-26.680478 42.133424-70.986973 40.926163-130.384235-1.207261-35.614213-7.967926-70.504068-21.368528-103.34158-13.279876-32.475333-32.354607-62.29469-56.741287-88.61299l-5.432677-6.157033c-9.175187-10.623901-18.591826-21.60998-26.197573-34.527677-9.416639-15.815125-16.177303-32.475333-20.161266-49.497719a187.366976 187.366976 0 0 1-1.207262-80.645065 185.67681 185.67681 0 0 1 29.940084-68.210271c14.004233-19.678362 32.23388-36.821474 52.757325-49.618445 21.368528-13.400602 45.875935-22.334337 70.986973-25.835395 8.330104-1.207261 17.143112-1.810892 25.835395-1.810892h3.74251c8.813009 0 17.505291 1.207261 25.956121 1.810892 25.111038 3.501058 49.618445 12.434793 70.986973 25.835395 20.523445 12.796971 38.753092 29.940084 52.757325 49.618445a185.435357 185.435357 0 0 1 29.819358 68.210271c5.674129 26.439026 5.31195 54.326765-1.207262 80.645065-3.983963 17.022386-10.865353 33.682594-20.161266 49.497719-7.605747 12.917697-17.022386 23.903777-26.197573 34.527677l-5.432677 6.157033c-24.386681 26.318299-43.461412 56.137657-56.741288 88.61299a285.939872 285.939872 0 0 0-21.368527 103.34158c-1.207261 59.397263 21.60998 103.703758 40.926163 130.384235 20.161266 28.008465 40.926163 43.461412 46.96247 47.203923 10.140996-2.655975 20.281992-5.794855 30.302262-9.054461 29.940084-10.02027 59.155811-22.937967 86.802098-38.270188-47.686827-25.714669-77.989089-75.816019-77.989089-130.384236 0-35.614213 13.642054-69.176081 41.650519-102.737948 0-1.207261 1.207261-1.207261 1.207262-1.327988l8.088651-8.813008c7.967926-8.692282 15.452946-17.022386 22.213611-26.076847 25.111038-33.441142 43.461412-72.797865 53.24023-113.603302 10.503175-44.427221 11.106805-91.510417 1.690166-136.299817-8.692282-41.167615-26.197573-81.127969-50.584255-115.53492a313.948338 313.948338 0 0 0-89.095894-83.90467 313.40507 313.40507 0 0 0-120.24324-43.82359 310.749095 310.749095 0 0 0-43.82359-3.018154h-3.863237z m1.931618 212.59874c-56.741288 0-102.979401 46.117387-102.979401 102.858675 0 56.862014 46.238113 102.979401 102.979401 102.979401 56.741288 0 102.858675-46.117387 102.858675-102.979401 0-56.741288-46.117387-102.858675-102.858675-102.858675zM3705.08621 260.286412c-24.145229-24.265955-54.326765-37.545831-112.275314-37.545831h-102.617223c-53.119503 0-80.886517 12.193341-162.980294 79.679255V53.989577a445.394964 445.394964 0 0 0-124.347929-46.721018h-1.207261V876.472652h125.55519V370.992286c8.45083-4.587593 18.108922-7.605747 25.35249-12.19334 35.010582-15.211494 63.984856-22.937967 96.580915-22.937968h85.715563c41.046889 0 53.119503 4.587593 66.399379 16.90166 12.072614 12.193341 16.90166 31.992428 16.90166 64.105583V876.472652h125.55519V407.693034c0-90.061704-12.072614-122.295584-38.632366-147.648074m-752.123878 489.785967c-10.865353 10.623901-26.559752 15.211494-66.39938 15.211494h-94.166392c-38.632366 0-72.435687-10.744627-119.518883-33.561868-1.207261-1.56944-4.829046-3.13888-7.243568-4.587594V370.992286c48.290458-24.386681 82.093778-35.131308 121.933405-35.131308h98.995438c39.839628 0 55.534026 4.587593 66.39938 15.33222 18.108922 18.350374 22.937967 53.481682 22.937967 198.473782 0 146.682265-4.829046 181.813573-22.937967 200.163947z m-37.425105-527.090346h-86.922824c-54.326765 0-80.886517 12.193341-162.980294 79.679255v-78.351267h-125.55519V1020.136763h125.55519V798.604289c82.093778 67.244462 108.65353 79.437803 162.980294 79.437803h86.922824c70.021164 0 106.239007-12.193341 132.798759-39.718902 35.010582-35.131308 51.912242-85.47411 51.912242-288.65621 0-203.061375-16.90166-251.955463-51.912242-286.966045-26.559752-27.767013-62.777595-39.960354-132.798759-39.960354m-876.471807 268.977849h298.193576c0-109.981517-8.45083-134.488925-18.108921-145.112825-8.45083-7.605747-19.316183-12.193341-56.741288-12.193341H2112.708368c-37.425105 0-45.875935 3.018154-56.741288 12.193341-10.865353 12.193341-15.694399 33.561868-16.90166 145.112825z m0 99.236891c1.207261 128.331891 9.658092 154.288012 18.108922 163.342473 9.658092 9.175187 18.108922 12.314067 55.534026 12.314067h169.016602c27.767013 0 37.425105-4.587593 44.668673-12.314067 7.243569-9.054461 10.865353-22.817241 12.072615-80.886517h121.933405c-1.207261 100.80633-12.072614 137.507078-43.461411 171.068947-21.730706 19.799088-49.497719 31.992428-107.446269 31.992428h-211.270752c-63.984856 0-101.409961-10.623901-129.176974-38.149462-41.046889-41.167615-53.119503-93.079857-53.119504-288.65621 0-195.455627 12.072614-246.039882 53.119504-288.173307 27.767013-26.559752 65.192118-37.425105 129.176974-37.425104h178.674693c65.192118 0 106.239007 11.951888 130.384236 36.217843 41.046889 42.133424 53.119503 92.476226 53.119503 283.34426v33.561868c0 9.175187-2.414523 13.76278-13.279875 13.762781h-408.054368m-212.478014 47.324648c0 135.937638-12.072614 172.638386-43.461411 206.200255-20.523445 18.350374-50.704981 31.992428-107.446269 31.992428h-197.990876c-65.192118 0-103.824484-10.623901-130.384236-38.149462-42.25415-41.167615-54.326765-93.079857-54.326765-288.65621 0-195.455627 12.072614-246.039882 54.326765-288.173307 26.559752-26.559752 65.192118-37.425105 130.384236-37.425104h196.783615c59.155811 0 85.715562 11.951888 106.239007 32.596059 31.388797 31.388797 43.461412 74.608757 43.461412 196.783615H1702.239478c-2.414523-83.90467-6.036307-99.236891-14.487137-106.842638-7.243569-6.157033-16.90166-10.744627-43.461412-10.744627h-152.114942c-37.425105 0-47.083196 4.587593-56.741288 12.314067-9.658092 12.193341-15.694399 35.131308-15.694398 201.491935 0 166.481353 6.036307 189.41932 15.694398 201.61266 9.658092 9.175187 19.316183 12.193341 56.741288 12.193341h152.114942c26.559752 0 38.632366-1.448714 47.083196-10.623901 8.45083-7.605747 13.279876-32.113154 13.279876-114.569111h121.933405"  /></svg>