<svg width="50" height="50" viewBox="0 0 50 50" fill="none" xmlns="http://www.w3.org/2000/svg">
<rect width="50" height="50" rx="25" fill="#FFF6E8"/>
<path fill-rule="evenodd" clip-rule="evenodd" d="M24.999 14.2979C24.6476 14.2979 24.3025 14.3901 23.9981 14.5654L20.1296 16.776L20.1261 16.778C19.8215 16.9538 19.5685 17.2067 19.3925 17.5112C19.2165 17.8157 19.1237 18.1621 19.1233 18.5138L19.1233 22.9376C19.1233 22.978 19.1246 23.0184 19.1271 23.0586C19.0921 23.0761 19.0575 23.0946 19.0235 23.1142L15.155 25.3248L15.1515 25.3268C14.8469 25.5027 14.5939 25.7555 14.4179 26.06C14.2419 26.3646 14.149 26.7109 14.1487 27.0627V31.4864C14.149 31.8381 14.2419 32.1836 14.4179 32.4881C14.5939 32.7926 14.8469 33.0455 15.1515 33.2213L15.155 33.2233L19.0215 35.4327L19.0235 35.4339C19.3068 35.597 19.6253 35.6882 19.9513 35.7001C19.9754 35.702 19.9997 35.703 20.0243 35.703C20.0488 35.703 20.0731 35.702 20.0971 35.7001C20.4232 35.6883 20.7418 35.597 21.0252 35.4339L21.0272 35.4327L24.8937 33.2233L24.8972 33.2213C24.9321 33.2011 24.9664 33.18 24.9999 33.1578C25.0335 33.18 25.0678 33.2011 25.1027 33.2213L25.1062 33.2233L28.9727 35.4327L28.9747 35.4339C29.258 35.597 29.5765 35.6882 29.9025 35.7001C29.9265 35.702 29.9509 35.703 29.9754 35.703C30 35.703 30.0243 35.702 30.0483 35.7001C30.3744 35.6883 30.693 35.597 30.9764 35.4339L30.9784 35.4327L34.8449 33.2233L34.8483 33.2213C35.1529 33.0455 35.4059 32.7926 35.582 32.4881C35.758 32.1836 35.8508 31.8372 35.8512 31.4855V27.0617C35.8508 26.71 35.758 26.3646 35.582 26.06C35.4059 25.7555 35.1529 25.5027 34.8483 25.3268L30.9784 23.1154L30.9764 23.1143C30.9417 23.0943 30.9065 23.0754 30.8708 23.0576C30.8733 23.0174 30.8746 22.9771 30.8746 22.9366V18.5129C30.8743 18.1612 30.7814 17.8157 30.6054 17.5112C30.4294 17.2067 30.1764 16.9538 29.8718 16.778L26.0018 14.5666L25.9998 14.5654C25.6954 14.3901 25.3503 14.2979 24.999 14.2979ZM25.9 31.4919C25.9012 31.5254 25.9106 31.5582 25.9275 31.5873C25.9453 31.6182 25.9709 31.6438 26.0016 31.6619L26.0027 31.6625L29.0754 33.4183V29.7951L25.9 27.9702V31.4855C25.9 31.4876 25.9 31.4898 25.9 31.4919ZM30.8754 33.4184L33.9483 31.6625L33.9494 31.6618C33.9802 31.6438 34.0057 31.6181 34.0236 31.5873C34.0415 31.5562 34.0511 31.5209 34.0512 31.485V27.9699L30.8754 29.795V33.4184ZM33.1345 26.4206L29.9753 28.2362L26.8164 26.4207L29.8692 24.6762L29.8727 24.6742C29.9039 24.6562 29.9394 24.6467 29.9755 24.6467C30.0116 24.6467 30.0471 24.6562 30.0784 24.6742L33.1345 26.4206ZM24.0999 27.97L20.9243 29.795V33.4184L23.9972 31.6625L23.9982 31.6618C24.029 31.6438 24.0546 31.6181 24.0724 31.5873C24.0892 31.5582 24.0986 31.5255 24.0999 31.492C24.0999 31.4901 24.0999 31.4883 24.0999 31.4864V27.97ZM20.1272 24.6742L23.1833 26.4206L20.0242 28.2362L16.8652 26.4207L19.918 24.6762L19.9215 24.6742C19.9528 24.6562 19.9882 24.6467 20.0243 24.6467C20.0605 24.6467 20.0959 24.6562 20.1272 24.6742ZM15.9487 31.4848V27.9701L19.1243 29.7951V33.4183L16.0515 31.6625L16.0505 31.6619C16.0197 31.6438 15.9941 31.6182 15.9763 31.5873C15.9583 31.5561 15.9488 31.5208 15.9487 31.4848ZM25.8989 24.8696L28.9718 23.1136L28.9728 23.113C29.0036 23.095 29.0292 23.0693 29.047 23.0384C29.065 23.0073 29.0745 22.9721 29.0746 22.9362L29.0746 19.4211L25.8989 21.2462V24.8696ZM28.158 17.8718L25.1018 16.1254C25.0705 16.1074 25.0351 16.0979 24.999 16.0979C24.9628 16.0979 24.9274 16.1074 24.8961 16.1254L24.8926 16.1274L21.8398 17.8719L24.9988 19.6874L28.158 17.8718ZM20.9233 19.4213V22.936C20.9234 22.972 20.9329 23.0073 20.9509 23.0384C20.9687 23.0693 20.9943 23.095 21.0251 23.113L21.0261 23.1136L24.0989 24.8695V21.2463L20.9233 19.4213Z" fill="#FF7A00"/>
</svg>
