<?xml version="1.0" encoding="iso-8859-1"?>
<!-- Generator: Adobe Illustrator 19.0.0, SVG Export Plug-In . SVG Version: 6.00 Build 0)  -->
<svg version="1.1" id="Capa_1" xmlns="http://www.w3.org/2000/svg" xmlns:xlink="http://www.w3.org/1999/xlink" x="0px" y="0px"
	 viewBox="0 0 512.002 512.002" style="enable-background:new 0 0 512.002 512.002;" xml:space="preserve">
<path style="fill:#BD4568;" d="M173.486,282.358c-32.175,16.09-103.718,87.796-133.866,153.291
	c-3.215,6.985-0.599,15.296,6.079,19.108c46.608,26.603,162.887,22.434,218.109,12.622c22.697-50.704,4.37-193.933,4.37-193.933
	L173.486,282.358z"/>
<path style="fill:#EDA751;" d="M67.325,466.249c-3.384,0-6.788-1.139-9.593-3.474c-6.372-5.303-7.239-14.767-1.935-21.139
	c26.844-32.254,50.634-38.486,71.621-43.985c15.439-4.045,28.772-7.538,43.74-21.915c5.98-5.742,15.481-5.55,21.223,0.427
	c5.742,5.979,5.551,15.481-0.427,21.223c-20.6,19.786-39.899,24.843-56.927,29.304c-19.032,4.986-35.468,9.293-56.157,34.15
	C75.902,464.407,71.629,466.249,67.325,466.249z"/>
<path style="fill:#FCD79D;" d="M64.769,431.688c-2.953,3.014-5.942,6.307-8.972,9.948c-5.304,6.371-4.437,15.836,1.935,21.139
	c2.805,2.335,6.209,3.474,9.593,3.474c4.304,0,8.577-1.842,11.545-5.408c2.858-3.434,5.633-6.463,8.347-9.169
	C81.648,442.278,72.723,435.041,64.769,431.688z"/>
<g>
	<path style="fill:#EDA751;" d="M150.232,504.145c-8.651,0-17.008-4.688-21.298-12.884c-6.151-11.751-1.61-26.264,10.141-32.414
		c27.373-14.327,41.098-32.391,53.206-48.328c1.365-1.797,2.697-3.55,4.009-5.249c8.106-10.496,23.19-12.435,33.686-4.328
		c10.497,8.107,12.435,23.189,4.328,33.687c-1.237,1.602-2.492,3.254-3.78,4.948c-13.637,17.949-32.313,42.531-69.177,61.826
		C157.794,503.264,153.986,504.145,150.232,504.145z"/>
	<path style="fill:#EDA751;" d="M266.721,504.5c-6.899,0-13.744-2.957-18.495-8.681c-8.469-10.207-7.061-25.348,3.146-33.817
		c19.733-16.373,15.731-38.836,14.126-42.58c-5.227-12.19,0.419-26.309,12.609-31.536c12.191-5.226,26.309,0.42,31.536,12.609
		c9.239,21.55,9.917,67.339-27.599,98.469C277.56,502.685,272.124,504.5,266.721,504.5z"/>
	<path style="fill:#EDA751;" d="M333.322,361.856c-11.904,0-22.234-8.842-23.789-20.962c-1.689-13.156,7.608-25.189,20.763-26.877
		c16.813-2.157,68.31-30.159,98.395-53.503c10.48-8.131,25.566-6.227,33.697,4.252c8.13,10.479,6.227,25.565-4.252,33.696
		c-30.027,23.298-90.651,59.208-121.726,63.195C335.373,361.791,334.34,361.856,333.322,361.856z"/>
</g>
<g>
	<path style="opacity:0.2;fill:#A35F00;enable-background:new    ;" d="M377.708,347.458c0.328-16.82-3.002-33.349-9.728-48.768
		c-16.1,8.391-30.268,14.375-37.685,15.327c-13.155,1.688-22.451,13.721-20.763,26.877c1.555,12.119,11.886,20.962,23.789,20.962
		c1.018,0,2.051-0.065,3.088-0.198C347.375,360.251,362.026,354.859,377.708,347.458z"/>
	<path style="opacity:0.2;fill:#A35F00;enable-background:new    ;" d="M278.107,387.887c-12.191,5.227-17.836,19.346-12.609,31.536
		c1.605,3.744,5.608,26.207-14.126,42.58c-1.462,1.214-2.738,2.568-3.836,4.021c0.757,0.013,1.516,0.036,2.27,0.036
		c22.086,0,43.611-5.346,62.586-15.33c4.748-19.737,2.259-38.548-2.75-50.233C304.416,388.307,290.298,382.661,278.107,387.887z"/>
	<path style="opacity:0.2;fill:#A35F00;enable-background:new    ;" d="M229.978,400.943c-10.496-8.107-25.58-6.168-33.686,4.328
		c-1.312,1.699-2.644,3.452-4.009,5.249c-6.949,9.146-14.436,18.992-24.724,28.431c13.477,10.139,28.896,17.673,45.519,22.195
		c6.894-7.682,12.506-15.061,17.45-21.568c1.288-1.694,2.542-3.346,3.779-4.948C242.413,424.131,240.475,409.049,229.978,400.943z"
		/>
	<path style="opacity:0.2;fill:#A35F00;enable-background:new    ;" d="M171.157,375.737
		c-13.712,13.171-26.054,17.207-39.898,20.902c4.038,7.628,8.936,14.934,14.68,21.801c1.18,1.41,2.392,2.788,3.626,4.142
		c13.199-4.247,27.451-10.848,42.388-25.194c5.978-5.742,6.169-15.244,0.427-21.223
		C186.638,370.187,177.137,369.995,171.157,375.737z"/>
</g>
<ellipse transform="matrix(0.1252 -0.9921 0.9921 0.1252 -124.251 546.2404)" style="fill:#FCD690;" cx="247.628" cy="343.578" rx="102.926" ry="110.766"/>
<g>
	<path style="fill:#FF91AB;" d="M247.953,424.234c-0.897,0-1.795-0.031-2.695-0.095c-11.768-0.834-21.322-7.077-26.215-17.128
		c-1.813-3.725-0.263-8.213,3.462-10.026c3.726-1.815,8.213-0.262,10.026,3.461c3.229,6.637,9.279,8.411,13.786,8.73
		c6.873,0.488,14.157-2.295,16.977-6.468c2.319-3.431,6.98-4.333,10.414-2.014c3.432,2.32,4.333,6.982,2.014,10.414
		C270.289,419.147,259.368,424.234,247.953,424.234z"/>
	<circle style="fill:#FF91AB;" cx="283.569" cy="374.177" r="41.679"/>
</g>
<path style="opacity:0.15;fill:#C17A00;enable-background:new    ;" d="M218.855,442.584
	c-46.061-39.307-21.971-104.919-9.718-133.397l8.232-65.252c-41.699,10.354-74.254,43.267-79.617,85.778
	C131.275,381.046,166.679,428.668,218.855,442.584z"/>
<path style="fill:#BD4568;" d="M147.803,271.358c-17.612,2.089-28.594,45.712,8.906,48.883
	c51.215,4.331,103.806,10.132,125.988,23.888c3.892,2.414,8.745,2.423,12.754,0.209c21.07-11.635,58.518-10.828,70.56-12.69
	c27.895-4.313,14.881-47.971-2.86-46.985C345.411,285.648,147.803,271.358,147.803,271.358z"/>
<path style="fill:#EDA751;" d="M203.151,159.848c22.63-16.985,38.737-46.686,10.658-93.411
	c-28.301-47.095-73.491-60.97-109.484-58.7c-8.874,0.56-16.609,6.365-19.625,14.729C72.466,56.392,73.166,103.66,110.481,143.99
	C147.503,184.002,180.521,176.833,203.151,159.848z"/>
<path style="fill:#FF91AB;" d="M82.973,27.666c-10.336,33.449-7.941,78.012,27.507,116.323
	c32.09,34.682,61.166,33.908,83.081,22.029C184.356,66.211,122.067,36.492,82.973,27.666z"/>
<path style="fill:#EDA751;" d="M337.77,167.163c-20.656-19.337-33.45-50.608-0.474-94.016
	C370.533,29.396,416.96,20.5,452.495,26.655c8.761,1.518,15.822,8.128,17.914,16.769c8.486,35.052,2.669,81.965-38.797,118.014
	C390.473,197.204,358.427,186.5,337.77,167.163z"/>
<path style="fill:#FF91AB;" d="M471.563,48.78c6.651,34.372-0.559,78.413-39.949,112.658c-35.659,31.001-64.48,27.081-84.979,12.897
	C366.6,76.113,431.741,53.319,471.563,48.78z"/>
<path style="fill:#FFDC9C;" d="M457.274,201.148c-4.678,86.097-91.033,119.226-195.03,113.575
	C158.246,309.072,75.99,266.782,80.668,180.684c4.678-86.097,92.776-151.312,196.773-145.661
	C381.438,40.674,461.952,115.051,457.274,201.148z"/>
<path style="opacity:0.15;fill:#C17A00;enable-background:new    ;" d="M175.589,53.629
	c-54.238,24.761-91.906,71.567-94.921,127.055c-4.022,74.012,56.2,115.652,139.248,129.473
	C103.872,231.999,124.749,136.484,175.589,53.629z"/>
<g>
	
		<ellipse transform="matrix(0.0543 -0.9985 0.9985 0.0543 12.4637 373.7843)" style="fill:#FF91AB;" cx="203.564" cy="180.312" rx="27.189" ry="34.149"/>
	
		<ellipse transform="matrix(-0.0543 0.9985 -0.9985 -0.0543 599.5518 -187.1638)" style="fill:#FF91AB;" cx="388.407" cy="190.335" rx="27.189" ry="34.149"/>
</g>
<path style="fill:#EDA751;" d="M166.981,399.351c-20.177,0-38.557-9.738-48.031-25.898c-5.556-9.476-7.669-20.554-6.108-32.036
	c1.466-10.794,6.141-21.82,13.897-32.772c7.662-10.825,22.651-13.388,33.478-5.721c10.825,7.664,13.386,22.653,5.721,33.478
	c-5.467,7.721-5.748,12.079-5.524,12.824c0.457,0.689,3.735,2.477,8.19,2.007c13.197-1.407,25.02,8.151,26.422,21.34
	c1.404,13.189-8.151,25.018-21.34,26.421C171.435,399.234,169.196,399.351,166.981,399.351z"/>
<g style="opacity:0.07;">
	<path d="M310.477,342.363c-24.577,12.55-54.787,18.47-66.618,19.143c-1.275,3.997-1.969,8.254-1.969,12.674
		c0,0.617,0.02,1.229,0.047,1.84c14.313-0.275,49.571-6.776,78.012-22.173C317.497,349.47,314.28,345.582,310.477,342.363z"/>
	<path d="M325.068,377.976c0.113-1.251,0.18-2.515,0.18-3.796c0-4.242-0.638-8.334-1.816-12.191
		c-27.1,17.383-67.792,24.588-79.669,24.578c1.604,5.161,4.188,9.89,7.528,13.975C269.117,398.784,300.17,391.965,325.068,377.976z"
		/>
</g>
<path d="M369.991,169.683c3.955,0,7.265-3.096,7.482-7.093l0.654-12.04c0.225-4.136-2.946-7.671-7.082-7.896
	c-4.11-0.228-7.672,2.945-7.896,7.082l-0.654,12.04c-0.225,4.136,2.946,7.671,7.082,7.895
	C369.716,169.679,369.854,169.683,369.991,169.683z M197.021,166.903c-10.811-2.031-33.255-1.574-42.76,0.261
	c-4.067,0.785-6.729,4.719-5.943,8.786c0.692,3.587,3.834,6.08,7.356,6.08c0.471,0,0.949-0.045,1.429-0.137
	c7.835-1.512,28.372-1.896,37.148-0.247c4.071,0.764,7.991-1.916,8.756-5.987C203.772,171.588,201.091,167.668,197.021,166.903z
	 M381.496,207.929c-1.278,3.94,0.879,8.17,4.818,9.449c8.495,2.757,26.339,12.929,32.492,18.009c1.398,1.154,3.09,1.716,4.771,1.716
	c2.16,0,4.305-0.929,5.787-2.725c2.638-3.194,2.186-7.921-1.008-10.559c-7.467-6.165-26.95-17.314-37.412-20.71
	C387.005,201.832,382.775,203.989,381.496,207.929z M452.171,249.232c7.387-14.18,11.64-30.154,12.592-47.678
	c1.037-19.088-1.841-37.873-8.35-55.717c22.39-29.821,30.156-67.53,21.284-104.177c-2.801-11.572-12.19-20.362-23.922-22.395
	c-35.702-6.185-71.687,3.131-99.506,25.58c-23.59-9.903-49.47-15.847-76.419-17.311c-26.954-1.464-53.324,1.641-77.848,8.929
	c-25.224-25.332-59.999-38.485-96.148-36.211c-11.882,0.749-22.169,8.47-26.209,19.671c-12.79,35.47-9.156,73.798,9.873,105.87
	c-8.403,17.034-13.3,35.396-14.338,54.485c-1.478,27.213,5.198,51.431,19.843,71.981c2.402,3.372,7.083,4.161,10.46,1.755
	c3.373-2.404,4.159-7.087,1.755-10.461c-12.622-17.713-18.368-38.729-17.079-62.462c4.446-81.83,89.171-143.998,188.878-138.58
	c99.701,5.418,177.197,76.398,172.751,158.23c-1.047,19.275-6.445,36.123-16.106,50.452c-0.193,0.251-0.377,0.509-0.538,0.782
	c-9.351,13.559-22.564,24.832-39.605,33.717c-5.049,2.633-10.405,5.035-16.047,7.206c-0.025,0.009-0.05,0.014-0.074,0.023
	c-0.046,0.017-0.088,0.039-0.134,0.057c-30.711,11.774-69.9,16.687-114.631,14.257c-50.494-2.743-92.56-13.891-122.799-32.41
	c-0.192-0.134-0.389-0.262-0.596-0.379c-0.015-0.008-0.031-0.014-0.045-0.023c-3.972-2.46-7.746-5.043-11.296-7.758
	c-3.291-2.517-7.997-1.888-10.514,1.402c-2.516,3.29-1.889,7.997,1.402,10.513c2.351,1.797,4.794,3.537,7.309,5.231
	c-1.774,5.253-2.402,10.854-1.802,16.175c-1.342,1.318-2.582,2.759-3.691,4.326c-5.11,7.217-8.991,14.505-11.63,21.79
	c-33.189,34.532-60.913,73.239-76.183,106.413c-4.887,10.619-0.943,22.982,9.174,28.757c2.329,1.329,4.899,2.619,7.645,3.854
	c0.972,1.235,2.071,2.384,3.308,3.414c4.036,3.36,9.147,5.21,14.393,5.21c1.927,0,3.819-0.252,5.642-0.721
	c13.053,3.315,28.397,5.784,45.744,7.357c0.032,4.853,1.178,9.768,3.58,14.356c5.458,10.428,16.165,16.906,27.942,16.906
	c5.051,0,10.098-1.244,14.594-3.598c15.634-8.183,28.139-17.237,38.635-26.661c10.853-0.596,21.639-1.447,31.792-2.516
	c-0.394,7.625,1.953,15.412,7.202,21.738c6.008,7.239,14.853,11.392,24.267,11.392c6.794,0,13.269-2.135,18.724-6.174
	c3.329-2.465,4.029-7.162,1.564-10.491c-2.465-3.33-7.162-4.029-10.49-1.565c-2.853,2.113-6.241,3.229-9.798,3.229
	c-4.938,0-9.575-2.176-12.723-5.97c-5.815-7.008-4.845-17.441,2.163-23.257c5.241-4.348,9.399-9.409,12.444-15.065
	c13.578-2.08,26.45-6.376,38.122-12.517c-1.142,8.83-3.89,19.122-9.759,29.567c-2.028,3.611-0.746,8.184,2.865,10.212
	c1.162,0.653,2.423,0.963,3.667,0.963c2.623,0,5.169-1.378,6.546-3.828c9.801-17.444,12.257-34.493,12.372-46.819
	c22.12-16.571,37.759-40.703,42.147-68.946c32.646-12.837,74.336-38.463,98.167-56.953c13.728-10.653,16.231-30.489,5.58-44.219
	C464.155,254.811,458.466,251.055,452.171,249.232z M137.348,67.42c-16.835,12.462-30.642,27.019-41.099,43.068
	c-14.353-29.02-12.056-56.502-7.962-73.751c15.599,4.339,35.13,12.573,52.529,28.18C139.65,65.739,138.493,66.572,137.348,67.42z
	 M153.82,56.514c-19.964-19.042-42.745-28.922-60.857-34.043c2.475-4.173,6.871-6.935,11.833-7.248
	c29.306-1.846,57.54,7.805,79.137,26.717C173.436,45.996,163.363,50.866,153.82,56.514z M398.006,69.782
	c-8.875-6.649-18.362-12.581-28.357-17.751c23.523-16.461,52.646-22.996,81.565-17.985c4.9,0.848,8.97,4.071,10.978,8.488
	C443.634,45.662,419.916,53.015,398.006,69.782z M449.39,129.676c-8.656-17.088-20.805-33.054-36.191-47.268
	c-1.047-0.967-2.107-1.921-3.176-2.865c18.988-13.63,39.296-19.699,55.273-22.322C467.497,74.814,466.802,102.383,449.39,129.676z
	 M120.274,342.427c1.302-9.585,5.536-19.492,12.587-29.449c2.548-3.6,6.346-5.992,10.693-6.735c0.941-0.161,1.882-0.24,2.817-0.24
	c3.389,0,6.689,1.043,9.511,3.042c3.6,2.549,5.992,6.348,6.735,10.696c0.743,4.349-0.252,8.726-2.801,12.327
	c-5.527,7.807-7.929,14.847-6.586,19.315c0.211,0.705,0.525,1.374,0.932,1.987c2.487,3.753,8.893,5.992,15.235,5.32
	c4.386-0.467,8.695,0.801,12.126,3.573c3.431,2.771,5.577,6.715,6.044,11.103c0.467,4.387-0.803,8.693-3.574,12.124
	c-2.773,3.432-6.715,5.579-11.101,6.046c-1.966,0.209-3.955,0.315-5.911,0.315c-17.61,0-33.536-8.503-41.562-22.191
	C120.72,361.646,118.94,352.229,120.274,342.427z M50.032,436.838c-1.776,2.133-3.097,4.535-3.975,7.083
	c-0.475-1.653-0.389-3.476,0.374-5.135c12.283-26.682,33.133-57.253,58.538-86.154c0.578,8.756,3.11,17.109,7.511,24.616
	c3.001,5.118,6.801,9.691,11.221,13.625C103.035,396.309,77.602,403.713,50.032,436.838z M73.106,456.042
	c-0.768,0.923-1.734,1.626-2.807,2.087c-0.189,0.065-0.375,0.142-0.558,0.222c-0.768,0.259-1.582,0.397-2.415,0.397
	c-1.235,0-3.069-0.302-4.796-1.739c-0.667-0.555-1.215-1.212-1.646-1.935c-0.011-0.018-0.021-0.037-0.033-0.055
	c-0.547-0.936-0.894-1.985-0.996-3.097c-0.183-1.998,0.423-3.947,1.707-5.489c25.306-30.405,46.886-36.06,67.756-41.528
	c3.998-1.047,7.818-2.057,11.64-3.233c3.039,1.274,6.2,2.329,9.455,3.145c1.846,2.531,3.792,4.979,5.83,7.342
	c-7.946,3.295-15.626,5.312-23.118,7.275C113.69,424.527,95.332,429.337,73.106,456.042z M122.247,465.634
	c-12.347-1.054-23.617-2.56-33.693-4.505c17.276-19.028,31.14-22.669,48.372-27.184c9.268-2.428,19.615-5.14,30.595-10.393
	c0.865,0.761,1.743,1.508,2.629,2.244c-7.796,8.422-18.557,18.034-34.552,26.405C129.649,455.316,125.116,460.078,122.247,465.634z
	 M157.87,494.758c-2.392,1.253-4.963,1.888-7.638,1.888c-6.177,0-11.792-3.396-14.653-8.861c-4.223-8.069-1.095-18.069,6.974-22.292
	c18.778-9.828,31.043-21.13,39.798-30.81c9.62,6.123,20.166,10.923,31.329,14.227C200.312,465.069,183.642,481.269,157.87,494.758z
	 M246.583,456.23c-2.476,2.054-4.554,4.411-6.231,6.972c-6.676,0.791-13.712,1.485-20.933,2.07
	c3.752-4.226,7.243-8.468,10.561-12.686c1.277,0.201,2.558,0.388,3.846,0.551c5.07,0.64,10.101,0.958,15.078,0.991
	C248.163,454.847,247.398,455.554,246.583,456.23z M350.105,356.502c-6.586,52.206-57.902,88.874-114.4,81.753
	c-18.584-2.345-35.899-9.221-50.401-19.689c-0.007-0.005-0.014-0.011-0.021-0.016c-3.949-2.852-7.688-5.97-11.188-9.337
	c-0.074-0.075-0.151-0.146-0.228-0.217c-0.784-0.76-1.561-1.527-2.32-2.312c0.979-0.063,1.959-0.13,2.933-0.233
	c8.371-0.891,15.894-4.987,21.184-11.536c5.289-6.549,7.712-14.766,6.821-23.137c-0.891-8.372-4.986-15.895-11.533-21.184
	c-5.931-4.792-13.211-7.231-20.77-6.986c0.509-0.855,1.127-1.813,1.878-2.874c2.416-3.413,4.099-7.191,5.008-11.147
	c38.885,3.702,83.254,9.489,101.676,20.914c3.175,1.969,6.799,2.957,10.45,2.957c3.385,0,6.793-0.85,9.883-2.557
	c13.561-7.488,35.667-9.374,51.579-10.458C350.953,345.798,350.777,351.174,350.105,356.502z M352.796,325.268
	c-17.351,1.153-43.57,2.896-60.97,12.503c-1.705,0.942-3.641,0.936-5.177-0.017c-21.182-13.135-64.842-19.037-109.839-23.257
	c-0.737-2.816-1.848-5.484-3.296-7.949c25.565,8.554,55.289,13.868,88.322,15.663c7.68,0.418,15.203,0.625,22.572,0.625
	c33.94-0.001,64.434-4.42,90.193-13.004c0.296,3.706-0.271,7.119-1.706,9.558c-1.569,2.668-4.196,4.253-8.03,4.846
	C362.255,324.639,357.871,324.931,352.796,325.268z M453.538,292.537c-21.617,16.773-58.341,39.354-87.742,52.064
	c-0.013-1.778-0.079-3.555-0.184-5.33c0.539-0.067,1.06-0.136,1.545-0.211c10.52-1.626,15.958-7.458,18.668-12.064
	c3.649-6.202,4.72-14.3,3.167-22.59c3.965-1.693,7.797-3.496,11.479-5.415c18.078-9.425,32.52-21.548,43.126-36.008
	c4.991,0.059,9.747,2.363,12.865,6.38C462.044,276.559,460.732,286.954,453.538,292.537z M397.511,192.69
	c8.902-0.686,29.277,1.918,36.903,4.27c0.736,0.228,1.48,0.336,2.213,0.336c3.204,0,6.171-2.069,7.165-5.291
	c1.221-3.958-0.998-8.156-4.956-9.377c-9.251-2.854-31.52-5.742-42.48-4.893c-4.13,0.319-7.22,3.925-6.9,8.055
	C389.774,189.919,393.373,193.011,397.511,192.69z M199.649,192.716c-10.769,2.242-31.345,11.215-39.435,16.535
	c-3.461,2.275-4.422,6.926-2.146,10.387c1.44,2.192,3.833,3.381,6.273,3.381c1.414,0,2.844-0.399,4.113-1.234
	c6.668-4.383,25.508-12.562,34.251-14.382c4.056-0.844,6.658-4.816,5.814-8.872C207.675,194.475,203.696,191.878,199.649,192.716z
	 M224.929,161.8c3.955,0,7.265-3.096,7.482-7.093l0.654-12.04c0.225-4.136-2.946-7.671-7.082-7.895
	c-4.123-0.226-7.671,2.945-7.896,7.082l-0.654,12.04c-0.225,4.136,2.946,7.671,7.082,7.896
	C224.653,161.797,224.791,161.8,224.929,161.8z M296.544,174.976c0.596,0.033,1.189,0.049,1.783,0.049
	c8.859,0,17.377-3.583,23.598-9.983c2.887-2.97,2.818-7.719-0.151-10.605c-2.973-2.888-7.72-2.818-10.606,0.151
	c-3.615,3.719-8.653,5.688-13.81,5.411c-5.162-0.281-9.953-2.787-13.143-6.876c-2.55-3.266-7.26-3.845-10.527-1.299
	c-3.266,2.548-3.847,7.261-1.299,10.527C278.246,169.858,287.051,174.46,296.544,174.976z"/>
<g>
</g>
<g>
</g>
<g>
</g>
<g>
</g>
<g>
</g>
<g>
</g>
<g>
</g>
<g>
</g>
<g>
</g>
<g>
</g>
<g>
</g>
<g>
</g>
<g>
</g>
<g>
</g>
<g>
</g>
</svg>
