<svg width="24" height="24" viewBox="0 0 24 24" fill="none" xmlns="http://www.w3.org/2000/svg">
<g id="Start Icon">
<path id="Vector" d="M12 8C16.9706 8 21 6.65685 21 5C21 3.34315 16.9706 2 12 2C7.02944 2 3 3.34315 3 5C3 6.65685 7.02944 8 12 8Z" stroke="#FF7A00" stroke-width="2" stroke-linecap="round" stroke-linejoin="round"/>
<path id="Vector_2" d="M3 12C2.99856 12.5592 3.46595 13.1073 4.34943 13.5826C5.23292 14.0579 6.49733 14.4415 8 14.69" stroke="#FF7A00" stroke-width="2" stroke-linecap="round" stroke-linejoin="round"/>
<path id="Vector_3" d="M21 9.3V5" stroke="#FF7A00" stroke-width="2" stroke-linecap="round" stroke-linejoin="round"/>
<path id="Vector_4" d="M3 5V19C2.99937 19.6487 3.62952 20.28 4.796 20.7992C5.96248 21.3184 7.60242 21.6976 9.47 21.88" stroke="#FF7A00" stroke-width="2" stroke-linecap="round" stroke-linejoin="round"/>
<path id="Union" fill-rule="evenodd" clip-rule="evenodd" d="M17.3164 13.4515C18.308 13.4527 19.241 13.8403 19.9437 14.5403C20.0287 14.6253 20.111 14.7156 20.188 14.8085L19.5746 15.2839C19.5429 15.3083 19.5188 15.3412 19.5051 15.3788C19.4913 15.4163 19.4884 15.457 19.4968 15.4961C19.5051 15.5352 19.5243 15.5712 19.5521 15.5999C19.58 15.6286 19.6154 15.6488 19.6542 15.6583L22.1319 16.2558C22.2647 16.2877 22.3921 16.1868 22.3948 16.0513L22.4107 13.5179C22.4111 13.478 22.4002 13.4388 22.3793 13.4048C22.3585 13.3708 22.3284 13.3433 22.2927 13.3256C22.2569 13.3078 22.2169 13.3005 22.1772 13.3045C22.1375 13.3084 22.0997 13.3235 22.0681 13.348L21.5291 13.7675C20.5359 12.538 19.0142 11.752 17.312 11.752V11.753L17.284 11.7529C14.2587 11.7529 11.8062 14.2055 11.8062 17.2308C11.8062 20.2562 14.2587 22.7087 17.284 22.7087L17.3164 22.7086V22.7101C20.2324 22.7101 22.6124 20.4044 22.7291 17.5176C22.7345 17.3982 22.6363 17.2974 22.5169 17.2974H21.2406C21.1266 17.2974 21.0337 17.3849 21.0284 17.499C20.9806 18.4144 20.5985 19.2714 19.9458 19.9241C19.2507 20.6193 18.3008 21.012 17.3164 21.012V21.0086L17.284 21.0087C15.1976 21.0087 13.5062 19.3173 13.5062 17.2308C13.5062 15.1444 15.1976 13.4529 17.284 13.4529L17.3164 13.4531V13.4515Z" fill="#FF7A00"/>
</g>
</svg>
