<svg width="32" height="32" viewBox="0 0 32 32" fill="none" xmlns="http://www.w3.org/2000/svg">
<path fill-rule="evenodd" clip-rule="evenodd" d="M14.6479 1.36169C15.4843 0.878784 16.5148 0.878784 17.3512 1.36169L28.0004 7.51001C28.8368 7.99292 29.3521 8.88538 29.3521 9.8512V22.1478C29.3521 23.1136 28.8368 24.0061 28.0004 24.489L17.3512 30.6373C16.5148 31.1202 15.4843 31.1202 14.6479 30.6373L3.99866 24.489C3.16223 24.0061 2.64697 23.1136 2.64697 22.1478V9.8512C2.64697 8.88538 3.16223 7.99292 3.99866 7.51001L14.6479 1.36169ZM15.9995 3.70288L25.2921 9.06795L15.9485 14.4379L6.65601 9.09737L15.9995 3.70288ZM5.35034 22.1478V11.465L14.597 16.7792V27.4864L5.35034 22.1478ZM17.3004 27.5451L26.6487 22.1478V11.4063L17.3004 16.7789V27.5451Z" fill="#FF7A00"/>
</svg>
