<svg width="24" height="24" viewBox="0 0 24 24" fill="none" xmlns="http://www.w3.org/2000/svg">
<g id="Start Icon">
<path id="Vector" d="M6.21418 5.14296C6.09632 5.14296 5.9999 5.23939 5.9999 5.35725V6.64296C5.9999 6.76082 6.09632 6.85725 6.21418 6.85725H16.4999C16.6178 6.85725 16.7142 6.76082 16.7142 6.64296V5.35725C16.7142 5.23939 16.6178 5.14296 16.4999 5.14296H6.21418ZM11.357 10.5001V9.21439C11.357 9.09653 11.2606 9.0001 11.1428 9.0001H6.21418C6.09632 9.0001 5.9999 9.09653 5.9999 9.21439V10.5001C5.9999 10.618 6.09632 10.7144 6.21418 10.7144H11.1428C11.2606 10.7144 11.357 10.618 11.357 10.5001ZM10.0713 21.1072H3.85704V2.2501H18.857V11.4644C18.857 11.5822 18.9535 11.6787 19.0713 11.6787H20.5713C20.6892 11.6787 20.7856 11.5822 20.7856 11.4644V1.17868C20.7856 0.704569 20.4026 0.321533 19.9285 0.321533H2.78561C2.3115 0.321533 1.92847 0.704569 1.92847 1.17868V22.1787C1.92847 22.6528 2.3115 23.0358 2.78561 23.0358H10.0713C10.1892 23.0358 10.2856 22.9394 10.2856 22.8215V21.3215C10.2856 21.2037 10.1892 21.1072 10.0713 21.1072Z" fill="#FF7A00"/>
<g id="Vector_2">
<path d="M13.9526 15.5625C13.2937 16.2214 12.908 17.0866 12.8597 18.0107C12.8544 18.1259 12.7606 18.2143 12.6455 18.2143H11.3571C11.2365 18.2143 11.1374 18.1125 11.1428 17.992C11.2606 15.0777 13.6633 12.75 16.6071 12.75C18.324 12.75 19.8589 13.5429 20.8606 14.783L21.4044 14.3598C21.4362 14.3352 21.4743 14.32 21.5144 14.316C21.5545 14.312 21.5948 14.3193 21.6309 14.3372C21.667 14.3551 21.6972 14.3828 21.7183 14.4171C21.7394 14.4514 21.7503 14.491 21.7499 14.5312L21.7339 17.0866C21.7312 17.2232 21.6026 17.325 21.4687 17.2929L18.9696 16.6902C18.9304 16.6806 18.8947 16.6602 18.8666 16.6313C18.8385 16.6023 18.8191 16.566 18.8107 16.5266C18.8023 16.4871 18.8053 16.4461 18.8191 16.4082C18.833 16.3704 18.8573 16.3372 18.8892 16.3125L19.508 15.833C19.4303 15.7393 19.3472 15.6482 19.2615 15.5625C18.5517 14.8554 17.6089 14.4643 16.6071 14.4643C15.6133 14.4643 14.6544 14.8607 13.9526 15.5625Z" fill="#FF7A00"/>
<path d="M20.5687 18.2143H21.8571C21.9776 18.2143 22.0767 18.3161 22.0714 18.4366C21.9535 21.3509 19.5508 23.6786 16.6071 23.6786C14.8901 23.6786 13.3553 22.8857 12.3535 21.6455L11.8098 22.0688C11.7779 22.0934 11.7398 22.1086 11.6997 22.1126C11.6597 22.1166 11.6193 22.1092 11.5833 22.0913C11.5472 22.0734 11.5169 22.0458 11.4958 22.0114C11.4748 21.9771 11.4638 21.9376 11.4642 21.8973L11.4803 19.342C11.483 19.2054 11.6115 19.1036 11.7455 19.1357L14.2446 19.7384C14.2838 19.7479 14.3195 19.7684 14.3476 19.7973C14.3757 19.8263 14.395 19.8625 14.4034 19.902C14.4118 19.9414 14.4089 19.9825 14.395 20.0203C14.3811 20.0582 14.3568 20.0914 14.3249 20.1161L13.7062 20.5955C13.7839 20.6893 13.8669 20.7804 13.9526 20.8661C14.6624 21.5732 15.6053 21.9643 16.6071 21.9643C17.6008 21.9643 18.5597 21.5679 19.2615 20.8661C19.9205 20.2071 20.3062 19.342 20.3544 18.4179C20.3598 18.3027 20.4535 18.2143 20.5687 18.2143Z" fill="#FF7A00"/>
</g>
</g>
</svg>
