<?xml version="1.0" encoding="UTF-8" standalone="no"?>
<!DOCTYPE svg PUBLIC "-//W3C//DTD SVG 1.1//EN" "http://www.w3.org/Graphics/SVG/1.1/DTD/svg11.dtd">
<svg width="100%" height="100%" viewBox="0 0 3263 3092" version="1.1" xmlns="http://www.w3.org/2000/svg" xmlns:xlink="http://www.w3.org/1999/xlink" xml:space="preserve" xmlns:serif="http://www.serif.com/" style="fill-rule:evenodd;clip-rule:evenodd;stroke-linejoin:round;stroke-miterlimit:2;">
    <g transform="matrix(1,0,0,1,-1218.26,-3406.2)">
        <circle cx="1612.71" cy="4573.71" r="394.457" style="fill:rgb(255,218,0);"/>
    </g>
    <g transform="matrix(1,0,0,1,28.4784,-2638.41)">
        <circle cx="1612.71" cy="4573.71" r="394.457" style="fill:rgb(255,218,0);"/>
    </g>
    <g transform="matrix(0.603394,0,0,0.603394,668.091,-1662.98)">
        <circle cx="1612.71" cy="4573.71" r="394.457" style="fill:rgb(255,218,0);"/>
    </g>
    <g transform="matrix(0.603394,0,0,0.603394,1894.88,-735.276)">
        <circle cx="1612.71" cy="4573.71" r="394.457" style="fill:rgb(255,218,0);"/>
    </g>
    <g transform="matrix(0.603394,0,0,0.603394,1894.88,-102.527)">
        <circle cx="1612.71" cy="4573.71" r="394.457" style="fill:rgb(255,218,0);"/>
    </g>
    <g transform="matrix(0.603394,0,0,0.603394,668.091,-2326.93)">
        <circle cx="1612.71" cy="4573.71" r="394.457" style="fill:rgb(255,218,0);"/>
    </g>
    <g transform="matrix(0.603394,0,0,0.603394,1894.88,-2505.29)">
        <circle cx="1612.71" cy="4573.71" r="394.457" style="fill:rgb(255,218,0);"/>
    </g>
    <g transform="matrix(0.603394,0,0,0.603394,-578.644,-2521.74)">
        <circle cx="1612.71" cy="4573.71" r="394.457" style="fill:rgb(255,218,0);"/>
    </g>
    <g transform="matrix(0.603394,0,0,0.603394,668.091,93.2486)">
        <circle cx="1612.71" cy="4573.71" r="394.457" style="fill:rgb(255,218,0);"/>
    </g>
    <g transform="matrix(1,0,0,1,1255.27,-3426.15)">
        <circle cx="1612.71" cy="4573.71" r="394.457" style="fill:rgb(255,218,0);"/>
    </g>
    <g transform="matrix(1,0,0,1,-1218.26,-2265.29)">
        <circle cx="1612.71" cy="4573.71" r="394.457" style="fill:rgb(255,218,0);"/>
    </g>
</svg>
