<svg xmlns="http://www.w3.org/2000/svg" viewBox="0 0 24 24">
  <g fill="none" stroke="currentColor" stroke-width="2" stroke-linecap="round" stroke-linejoin="round">
    <path d="M12 8C16.9706 8 21 6.65685 21 5C21 3.34315 16.9706 2 12 2C7.02944 2 3 3.34315 3 5C3 6.65685 7.02944 8 12 8Z" />
    <path d="M3 12C2.99856 12.5592 3.46595 13.1073 4.34943 13.5826C5.23292 14.0579 6.49733 14.4415 8 14.69" />
    <path d="M21 9.3V5" />
    <path d="M3 5V19C2.99937 19.6487 3.62952 20.28 4.796 20.7992C5.96248 21.3184 7.60242 21.6976 9.47 21.88" />
  </g>
  <path 
    d="M17.3169 13.4515C18.3084 13.4527 19.2415 13.8403 19.9442 14.5403C20.0291 14.6253 20.1115 14.7156 20.1885 14.8085L19.575 15.2839C19.5434 15.3083 19.5193 15.3412 19.5056 15.3788C19.4918 15.4163 19.4889 15.457 19.4972 15.4961C19.5056 15.5352 19.5248 15.5712 19.5526 15.5999C19.5805 15.6286 19.6159 15.6488 19.6547 15.6583L22.1324 16.2558C22.2651 16.2877 22.3926 16.1868 22.3953 16.0513L22.4112 13.5179C22.4116 13.478 22.4007 13.4388 22.3798 13.4048C22.359 13.3708 22.3289 13.3433 22.2932 13.3256C22.2574 13.3078 22.2174 13.3005 22.1777 13.3045C22.138 13.3084 22.1002 13.3235 22.0686 13.348L21.5295 13.7675C20.5364 12.538 19.0147 11.752 17.3125 11.752V11.753L17.2845 11.7529C14.2592 11.7529 11.8066 14.2055 11.8066 17.2308C11.8066 20.2562 14.2592 22.7087 17.2845 22.7087L17.3169 22.7086V22.7101C20.2329 22.7101 22.6129 20.4044 22.7296 17.5176C22.7349 17.3982 22.6368 17.2974 22.5174 17.2974H21.2411C21.127 17.2974 21.0342 17.3849 21.0289 17.499C20.9811 18.4144 20.599 19.2714 19.9463 19.9241C19.2512 20.6193 18.3013 21.012 17.3169 21.012V21.0086L17.2845 21.0087C15.1981 21.0087 13.5066 19.3173 13.5066 17.2308C13.5066 15.1444 15.1981 13.4529 17.2845 13.4529L17.3169 13.4531V13.4515Z"
    fill="currentColor"
  />
</svg>