<svg width="16" height="16" viewBox="0 0 16 16" fill="none" xmlns="http://www.w3.org/2000/svg">
<path d="M14.45 6.025C14.0986 5.1933 13.5892 4.43767 12.95 3.8C12.3123 3.16079 11.5567 2.65138 10.725 2.3C9.86094 1.93437 8.94531 1.75 8 1.75C7.05469 1.75 6.13906 1.93437 5.275 2.3C4.4433 2.65138 3.68767 3.16079 3.05 3.8C2.41079 4.43767 1.90138 5.1933 1.55 6.025C1.18437 6.88906 1 7.80469 1 8.75C1 10.8234 1.91094 12.7766 3.49844 14.1109L3.525 14.1328C3.61563 14.2078 3.72969 14.25 3.84687 14.25H12.1547C12.2719 14.25 12.3859 14.2078 12.4766 14.1328L12.5031 14.1109C14.0891 12.7766 15 10.8234 15 8.75C15 7.80469 14.8141 6.88906 14.45 6.025ZM11.8969 13.0625H4.10313C3.49937 12.5181 3.01682 11.8529 2.68681 11.1099C2.35679 10.367 2.18667 9.56294 2.1875 8.75C2.1875 7.19688 2.79219 5.7375 3.89062 4.64062C4.98906 3.54219 6.44844 2.9375 8 2.9375C9.55313 2.9375 11.0125 3.54219 12.1094 4.64062C13.2078 5.73906 13.8125 7.19844 13.8125 8.75C13.8125 10.4 13.1172 11.9609 11.8969 13.0625ZM9.74219 6.58594C9.71869 6.56267 9.68697 6.54962 9.65391 6.54962C9.62084 6.54962 9.58912 6.56267 9.56563 6.58594L8.24531 7.90625C7.95312 7.82812 7.62969 7.90312 7.4 8.13281C7.31865 8.21401 7.2541 8.31046 7.21007 8.41663C7.16603 8.5228 7.14336 8.63662 7.14336 8.75156C7.14336 8.86651 7.16603 8.98032 7.21007 9.08649C7.2541 9.19267 7.31865 9.28911 7.4 9.37031C7.4812 9.45167 7.57765 9.51621 7.68382 9.56025C7.78999 9.60428 7.90381 9.62695 8.01875 9.62695C8.13369 9.62695 8.24751 9.60428 8.35368 9.56025C8.45985 9.51621 8.5563 9.45167 8.6375 9.37031C8.74632 9.26182 8.82458 9.12652 8.86436 8.9781C8.90414 8.82967 8.90404 8.67337 8.86406 8.525L10.1844 7.20469C10.2328 7.15625 10.2328 7.07656 10.1844 7.02812L9.74219 6.58594ZM7.65625 5H8.34375C8.4125 5 8.46875 4.94375 8.46875 4.875V3.625C8.46875 3.55625 8.4125 3.5 8.34375 3.5H7.65625C7.5875 3.5 7.53125 3.55625 7.53125 3.625V4.875C7.53125 4.94375 7.5875 5 7.65625 5ZM11.7188 8.40625V9.09375C11.7188 9.1625 11.775 9.21875 11.8438 9.21875H13.0938C13.1625 9.21875 13.2188 9.1625 13.2188 9.09375V8.40625C13.2188 8.3375 13.1625 8.28125 13.0938 8.28125H11.8438C11.775 8.28125 11.7188 8.3375 11.7188 8.40625ZM11.9172 5.325L11.4312 4.83906C11.4078 4.8158 11.376 4.80275 11.343 4.80275C11.3099 4.80275 11.2782 4.8158 11.2547 4.83906L10.3703 5.72344C10.347 5.74693 10.334 5.77866 10.334 5.81172C10.334 5.84478 10.347 5.87651 10.3703 5.9L10.8562 6.38594C10.9047 6.43438 10.9844 6.43438 11.0328 6.38594L11.9172 5.50156C11.9656 5.45312 11.9656 5.37344 11.9172 5.325ZM4.75156 4.83906C4.72807 4.8158 4.69634 4.80275 4.66328 4.80275C4.63022 4.80275 4.59849 4.8158 4.575 4.83906L4.08906 5.325C4.0658 5.34849 4.05275 5.38022 4.05275 5.41328C4.05275 5.44634 4.0658 5.47807 4.08906 5.50156L4.97344 6.38594C5.02187 6.43438 5.10156 6.43438 5.15 6.38594L5.63594 5.9C5.68438 5.85156 5.68438 5.77187 5.63594 5.72344L4.75156 4.83906ZM4.09375 8.28125H2.84375C2.775 8.28125 2.71875 8.3375 2.71875 8.40625V9.09375C2.71875 9.1625 2.775 9.21875 2.84375 9.21875H4.09375C4.1625 9.21875 4.21875 9.1625 4.21875 9.09375V8.40625C4.21875 8.3375 4.1625 8.28125 4.09375 8.28125Z" fill="currentColor"/>
</svg>
