<svg width="16" height="17" viewBox="0 0 16 17" fill="none" xmlns="http://www.w3.org/2000/svg">
<g clip-path="url(#clip0_1_26687)">
<path d="M7.0396 9.19578V10.4509C7.0396 10.5616 7.16842 10.6227 7.2543 10.555L9.59782 8.70528C9.61361 8.69292 9.62638 8.67713 9.63516 8.6591C9.64394 8.64107 9.64851 8.62128 9.64851 8.60123C9.64851 8.58118 9.64394 8.56139 9.63516 8.54336C9.62638 8.52534 9.61361 8.50954 9.59782 8.49719L7.2543 6.64748C7.16842 6.57811 7.0396 6.64087 7.0396 6.75152V8.00668H1.8538C1.78113 8.00668 1.72168 8.06614 1.72168 8.1388V9.06366C1.72168 9.13633 1.78113 9.19578 1.8538 9.19578H7.0396Z" fill="currentColor"/>
<path fill-rule="evenodd" clip-rule="evenodd" d="M3.06406 4.03692C4.73679 4.03692 6.71948 3.05986 8.07242 1.87918C8.12001 1.83923 8.18019 1.8173 8.24238 1.8173C8.30455 1.8173 8.36469 1.83921 8.41228 1.87912C9.77317 3.06768 11.7485 4.03692 13.4207 4.03692C13.4575 4.03692 13.4927 4.05152 13.5187 4.07751C13.5447 4.10351 13.5593 4.13876 13.5593 4.17552V9.35384C13.5593 11.0445 12.9747 12.2815 12.0507 13.2295C11.1111 14.1935 9.79375 14.8846 8.29943 15.4059C8.26966 15.4156 8.23747 15.4149 8.2081 15.404C8.20358 15.4023 8.19905 15.4006 8.19449 15.3991C6.69556 14.8815 5.37548 14.1918 4.43461 13.2282C3.94197 12.7236 3.54584 12.1368 3.28324 11.4428C3.24825 11.3503 3.1608 11.2872 3.06193 11.2872H2.27298C2.12054 11.2872 2.00976 11.4322 2.0567 11.5773C2.37197 12.5515 2.89725 13.3747 3.57435 14.0681C4.69787 15.2188 6.21241 15.986 7.79615 16.5335C8.08309 16.6384 8.39734 16.6422 8.68684 16.5441L8.69177 16.5424C10.2735 15.9911 11.7881 15.2215 12.9117 14.0687C14.0517 12.8991 14.7616 11.362 14.7616 9.35384V4.17552C14.7616 3.81989 14.6203 3.47882 14.3689 3.22735C14.1174 2.97588 13.7763 2.8346 13.4207 2.8346C12.1353 2.8346 10.4284 2.0448 9.20028 0.971036L9.1951 0.966553C8.92952 0.739655 8.59169 0.61499 8.24238 0.61499C7.89308 0.61499 7.55525 0.739655 7.28967 0.966553L7.28467 0.970874C6.06332 2.0378 4.34904 2.8346 3.06406 2.8346C2.70843 2.8346 2.36736 2.97588 2.11589 3.22735C1.86442 3.47882 1.72314 3.81989 1.72314 4.17552V5.6835C1.72314 5.81119 1.82666 5.91471 1.95436 5.91471H2.69424C2.82194 5.91471 2.92546 5.81119 2.92546 5.6835V4.17552C2.92546 4.13876 2.94006 4.10351 2.96605 4.07751C2.99205 4.05152 3.0273 4.03692 3.06406 4.03692Z" fill="currentColor"/>
</g>
<defs>
<clipPath id="clip0_1_26687">
<rect width="16" height="16" fill="white" transform="translate(0 0.593994)"/>
</clipPath>
</defs>
</svg>
