<svg width="24" height="24" viewBox="0 0 24 24" fill="none" xmlns="http://www.w3.org/2000/svg">
<g clip-path="url(#clip0_286_14217)">
<path fill-rule="evenodd" clip-rule="evenodd" d="M13.0492 1.02164C12.4219 0.659454 11.649 0.659454 11.0217 1.02164L3.03476 5.63287C2.40744 5.99506 2.021 6.6644 2.021 7.38876V16.6112C2.021 17.3356 2.40744 18.0049 3.03476 18.3671L11.0217 22.9784C11.2124 23.0885 11.4166 23.1651 11.6261 23.2083C11.7419 23.2542 11.8682 23.2795 12.0004 23.2795C12.5609 23.2795 13.0154 22.8251 13.0154 22.2645V22.1853H13.0171V20.6557L13.0154 20.6567V19.2372C13.0154 19.2055 13.0139 19.1742 13.0111 19.1433V12.5845L20.0223 8.55509V9.02133C20.0211 9.04152 20.0205 9.06188 20.0205 9.08238V11.2054C20.0205 11.766 20.4749 12.2204 21.0355 12.2204C21.5961 12.2204 22.0505 11.766 22.0505 11.2054V9.08238C22.0505 9.06996 22.0503 9.05759 22.0498 9.04528V7.38876C22.0498 6.6644 21.6634 5.99506 21.0361 5.63287L13.0492 1.02164ZM19.0048 6.80133L12.0354 2.77753L5.02777 6.8234L11.9971 10.8288L19.0048 6.80133ZM4.04852 8.59913V16.6112L10.9835 20.6152V12.5848L4.04852 8.59913Z" fill="currentColor"/>
<path d="M18.6235 17.0922V14.0079C18.6235 13.8663 18.7397 13.75 18.8778 13.75H20.4036C20.5453 13.75 20.6579 13.8663 20.6579 14.0079V17.0922H23.7277C23.8766 17.0922 24.0001 17.2049 24.0001 17.3465V18.8723C24.0001 19.0104 23.8766 19.1266 23.7277 19.1266H20.6579V22.211C20.6579 22.3526 20.5453 22.4689 20.4036 22.4689H18.8778C18.7397 22.4689 18.6235 22.3526 18.6235 22.211V19.1266H15.5537C15.4048 19.1266 15.2812 19.0104 15.2812 18.8723V17.3465C15.2812 17.2049 15.4048 17.0922 15.5537 17.0922H18.6235Z" fill="currentColor"/>
</g>
<defs>
<clipPath id="clip0_286_14217">
<rect width="24" height="24" fill="white"/>
</clipPath>
</defs>
</svg>
