<svg width="24" height="24" viewBox="0 0 24 24" fill="none" xmlns="http://www.w3.org/2000/svg">
<path fill-rule="evenodd" clip-rule="evenodd" d="M20.9377 4.70612L18.6887 5.49908V7.30295C18.6887 7.46863 18.5544 7.60295 18.3887 7.60295H17.1887C17.023 7.60295 16.8887 7.46863 16.8887 7.30295V5.02134C16.8887 4.54423 17.1896 4.119 17.6396 3.96035L21.2386 2.69141C21.9705 2.43337 22.7377 2.97636 22.7377 3.7524V20.2478C22.7377 21.0238 21.9705 21.5668 21.2386 21.3088L17.6396 20.0398C17.1896 19.8812 16.8887 19.456 16.8887 18.9789L16.8887 16.7495C16.8887 16.5838 17.023 16.4495 17.1887 16.4495H18.3887C18.5544 16.4495 18.6887 16.5838 18.6887 16.7495L18.6887 18.5011L20.9377 19.2941V4.70612Z" fill="#00BD9B"/>
<path fill-rule="evenodd" clip-rule="evenodd" d="M2.76072 2.6909C2.02885 2.43292 1.26172 2.9759 1.26172 3.75191L1.26172 20.2474C1.26172 21.0234 2.02885 21.5663 2.76072 21.3084L6.36072 20.0394C6.81072 19.8808 7.11172 19.4555 7.11172 18.9784L7.11172 12.8564L9.04883 12.8564L9.04883 16.1616C9.04883 16.7829 9.55251 17.2866 10.1738 17.2866H13.7738C14.3952 17.2866 14.8988 16.7829 14.8988 16.1616V12.8565H16.1133V14.521C16.1133 14.7654 16.3899 14.9073 16.5883 14.7647L20.099 12.242C20.2655 12.1223 20.2655 11.8744 20.099 11.7547L16.5883 9.23206C16.3899 9.08944 16.1133 9.23128 16.1133 9.47568V11.1389H14.8988L14.8988 7.83789C14.8988 7.21657 14.3951 6.71289 13.7738 6.71289L10.1738 6.71289C9.55251 6.71289 9.04883 7.21657 9.04883 7.83789V11.1389L7.11172 11.1389L7.11172 5.02089C7.11172 4.54374 6.81073 4.1185 6.36072 3.95988L2.76072 2.6909ZM3.06172 19.2937L3.06172 4.70555L5.31172 5.49866L5.31172 18.5006L3.06172 19.2937ZM10.8488 15.4866L10.8488 8.51289L13.0988 8.51289L13.0988 15.4866H10.8488Z" fill="#00BD9B"/>
</svg>
