<svg width="14" height="14" viewBox="0 0 14 14" fill="none" xmlns="http://www.w3.org/2000/svg">
<path fill-rule="evenodd" clip-rule="evenodd" d="M5.24935 2.3335C5.24935 2.23155 5.3062 2.08077 5.44308 1.94389C5.57996 1.80701 5.73073 1.75016 5.83268 1.75016H8.16602C8.26796 1.75016 8.41874 1.80701 8.55562 1.94389C8.6925 2.08077 8.74935 2.23155 8.74935 2.3335V2.91683H5.24935V2.3335ZM4.08268 2.91683V2.3335C4.08268 1.85211 4.3175 1.41955 4.61812 1.11893C4.91874 0.818315 5.3513 0.583496 5.83268 0.583496H8.16602C8.6474 0.583496 9.07996 0.818315 9.38058 1.11893C9.6812 1.41955 9.91602 1.85211 9.91602 2.3335V2.91683H10.4993H11.666H12.3327C12.6088 2.91683 12.8327 3.14069 12.8327 3.41683V3.5835C12.8327 3.85964 12.6088 4.0835 12.3327 4.0835H11.666V11.6668C11.666 12.1482 11.4312 12.5808 11.1306 12.8814C10.83 13.182 10.3974 13.4168 9.91602 13.4168H4.08268C3.6013 13.4168 3.16874 13.182 2.86812 12.8814C2.5675 12.5808 2.33268 12.1482 2.33268 11.6668V4.0835H1.66602C1.38987 4.0835 1.16602 3.85964 1.16602 3.5835V3.41683C1.16602 3.14069 1.38987 2.91683 1.66602 2.91683H2.33268H3.49935H4.08268ZM9.33268 4.0835H4.66602H3.49935V11.6668C3.49935 11.7688 3.5562 11.9196 3.69308 12.0564C3.82996 12.1933 3.98073 12.2502 4.08268 12.2502H9.91602C10.018 12.2502 10.1687 12.1933 10.3056 12.0564C10.4425 11.9196 10.4993 11.7688 10.4993 11.6668V4.0835H9.33268Z" fill="currentColor"/>
<path fill-rule="evenodd" clip-rule="evenodd" d="M11.0827 3.5V11.6667C11.0827 12.25 10.4993 12.8333 9.91602 12.8333H4.08268C3.49935 12.8333 2.91602 12.25 2.91602 11.6667V3.5H11.0827ZM9.07645 6.51866C9.19035 6.63256 9.19035 6.81723 9.07645 6.93114L7.82435 8.18323L9.07645 9.43533C9.19035 9.54923 9.19035 9.7339 9.07645 9.8478L8.66397 10.2603C8.55006 10.3742 8.36539 10.3742 8.25149 10.2603L6.99939 9.00819L5.7473 10.2603C5.6334 10.3742 5.44872 10.3742 5.33482 10.2603L4.92234 9.8478C4.80844 9.7339 4.80844 9.54923 4.92234 9.43533L6.17444 8.18323L4.92234 6.93114C4.80844 6.81723 4.80844 6.63256 4.92234 6.51866L5.33482 6.10618C5.44872 5.99228 5.6334 5.99228 5.7473 6.10618L6.99939 7.35827L8.25149 6.10618C8.36539 5.99228 8.55006 5.99228 8.66397 6.10618L9.07645 6.51866Z" fill="currentColor"/>
</svg>
