<svg width="16" height="16" viewBox="0 0 16 16" fill="none" xmlns="http://www.w3.org/2000/svg">
<path d="M8 1C4.13438 1 1 4.13438 1 8C1 11.8656 4.13438 15 8 15C11.8656 15 15 11.8656 15 8C15 4.13438 11.8656 1 8 1ZM8 13.8125C4.79063 13.8125 2.1875 11.2094 2.1875 8C2.1875 4.79063 4.79063 2.1875 8 2.1875C11.2094 2.1875 13.8125 4.79063 13.8125 8C13.8125 11.2094 11.2094 13.8125 8 13.8125Z" fill="currentColor"/>
<path d="M11.2405 7.79861L6.61394 4.43922C6.57684 4.41202 6.53291 4.39566 6.48705 4.39196C6.44119 4.38826 6.3952 4.39737 6.35422 4.41826C6.31323 4.43916 6.27885 4.47103 6.25491 4.51032C6.23097 4.54961 6.21841 4.59478 6.21863 4.64078V11.3596C6.21863 11.5642 6.44988 11.6799 6.61394 11.5611L11.2405 8.20173C11.2724 8.17872 11.2985 8.14844 11.3164 8.11339C11.3344 8.07835 11.3437 8.03954 11.3437 8.00017C11.3437 7.9608 11.3344 7.92199 11.3164 7.88695C11.2985 7.8519 11.2724 7.82162 11.2405 7.79861ZM7.21551 9.89236V6.10798L9.82019 8.00017L7.21551 9.89236Z" fill="currentColor"/>
</svg>
