<?xml version="1.0" encoding="UTF-8" ?>
<!DOCTYPE svg PUBLIC "-//W3C//DTD SVG 1.1//EN" "http://www.w3.org/Graphics/SVG/1.1/DTD/svg11.dtd">
<svg width="1600" height="494pt" viewBox="0 0 1200 494" version="1.1" xmlns="http://www.w3.org/2000/svg">
  <path opacity="1" d="M68.64 154.01c-.31-9.01 6.54-17.88 15.44-19.5 25.31-.11 50.63-.01 75.94-.04 6.26-.22 11.99 5.26 12.26 11.48.2 5.03.14 10.07.05 15.1.04 5.98-5.18 11.74-11.31 11.5-13.18.13-26.38-.24-39.57.17 1.88 4.21 4.46 8.02 6.91 11.91 15.65 26.01 31.25 52.07 46.94 78.06 2.38 3.41 3.3 7.75 2.16 11.79-1.49 4.86-6.54 6.97-10.4 9.59-4.07 2.39-7.93 6.24-13.03 5.64-4.4.14-7.9-3.16-9.93-6.76-23.52-38.52-46.77-77.2-70.43-115.63-2.57-4.01-5.05-8.4-5.03-13.31m376.29 52.89c3.34-1.77 6.72-3.49 10.26-4.82 3.96-1.48 8.59.44 10.84 3.9 3.38 5.22 5.63 11.07 8.35 16.65 10.67 22.3 20.8 44.87 31.7 67.05 4.15-7.29 7.28-15.11 10.96-22.65 8.56-18.11 16.98-36.3 25.6-54.39 2.06-3.98 3.85-9 8.55-10.51 3.66-1.55 7.39.47 10.69 1.97 3.03 1.51 6.43 2.67 8.67 5.34 2.4 2.68 2.89 6.72 1.7 10.04-16.58 35.03-32.95 70.18-49.55 105.21-2.41 5.16-4.66 11.28-10.41 13.54-6.98 3.64-16.16-.07-19.56-6.92-17.66-37.32-35.14-74.73-52.79-112.05-1.95-4.58.65-10.21 4.99-12.36m255.29-3.69c7.24-3.98 17.15-.4 20.45 7.11 17.56 37.05 34.72 74.31 52.5 111.26 1.72 4.71-.37 10.36-4.88 12.64-4.29 2.07-8.5 4.9-13.3 5.47-5.85-.12-9.03-5.76-11.15-10.45-12.26-26.11-24.69-52.14-36.84-78.31-12.35 26.29-24.7 52.57-37.17 78.81-1.85 3.82-4 8.19-8.39 9.53-3.65 1.34-7.19-.86-10.41-2.32-3-1.54-6.36-2.74-8.57-5.4-2.37-2.69-2.69-6.68-1.64-9.98 16.63-34.73 32.88-69.66 49.24-104.53 2.52-5.11 4.51-11.33 10.16-13.83m175.28-.5c5.71-1.53 11.65-1.08 17.5-1.12 17.01 0 34.01 0 51.02-.01 3.56-.19 7.36.85 9.66 3.74 3.84 4.28 2.52 10.5 2.27 15.71-.05 4.29-2.86 8.62-7.16 9.62-4.52 1.04-9.2.53-13.79.63-16.69 0-33.37-.01-50.05 0-4.02-.17-8.55 1.47-10.35 5.3-1.2 3.82-.29 8.35 2.75 11.08 3.13 3.31 7.77 4.21 12.02 5.21 9.16 2.25 18.35 4.36 27.55 6.49 10.69 2.43 20.83 8.6 26.81 17.95 6.27 9.57 7.4 21.91 4.56 32.84-4.42 16.92-22 28.83-39.3 27.59-19.35-.06-38.7.03-58.05-.05-5.74.5-10.77-5.06-10.42-10.65.04-3.91-.2-7.9.74-11.73 1.14-4.18 5.35-7.27 9.72-6.93 18.67-.02 37.34-.04 56.02.02 3.24-.01 6.83.16 9.59-1.86 4.09-2.91 4.36-9.08 2.03-13.18-1.94-3.35-5.84-4.7-9.42-5.42-10.08-2.09-20.01-4.79-30.05-7.03-11.68-2.75-22.57-9.75-29.04-19.97-6.18-9.91-7.5-22.64-3.89-33.68 4.23-12.87 16.5-21.51 29.28-24.55m148.18 7.25c.57-4.9 5.41-8.63 10.28-8.37 34.02.01 68.05-.03 102.08.02 5.18-.13 9.74 4.26 10.14 9.37.31 5.72 1.12 12.51-3.19 17.04-2.47 2.84-6.45 3.34-9.98 3.29-11.04-.06-22.09.02-33.13-.07-.62 32.25-.04 64.54-.28 96.8.05 4.22-3.31 7.86-7.07 9.31-4.48.7-9.05.34-13.56.31-3.54.15-6.57-2.42-8.11-5.41-1.49-3.9-1.03-8.17-1.1-12.25.02-29.58.04-59.15 0-88.73-10.59.02-21.18-.02-31.76.05-2.81-.01-5.71.02-8.34-1.07-3.46-1.68-6.11-5.28-6.08-9.2-.11-3.7-.19-7.4.1-11.09m-746.54 46.21c2.45-4.08 4.79-9.18 9.89-10.35 5.41-1.61 10.15 2.03 14.55 4.61 3.98 2.47 8.84 4.57 10.7 9.22 1.45 5.1.21 10.62-2.56 15.05-22.43 37.26-44.77 74.59-67.2 111.85-2.97 4.8-5.45 10.51-10.77 13.18-7.78 4.2-18.01.31-22.64-6.8-12.42-20.91-24.81-41.86-37.28-62.75-1.98-3.09-2.1-7.09-1.03-10.51 1.5-3.68 5.17-5.65 8.47-7.45 3.7-1.98 7.23-4.28 11.08-5.97 4.9-2.16 11.01.1 13.74 4.61 6.76 10.93 12.98 22.2 19.96 33.01 1.52-2.12 3-4.26 4.3-6.52 16.12-27.14 32.53-54.12 48.79-81.18" fill="#0f0f0f"/>
  <path fill="#29b8ff" opacity="1" d="M203.53 145.2c1.34-6.93 9.06-10.09 15.46-9.87 47.65-.07 95.3-.09 142.95-.08 12.9-.32 21.83 16.09 15.39 26.98-12.07 19.99-24.18 39.94-36.12 60-1.82 3.44-4.49 6.78-8.52 7.58-3.84 1.42-7.66-.82-10.91-2.68-3.56-2.13-7.26-4.03-10.77-6.24-4.54-2.9-6.7-9.3-4.17-14.19 6.28-11.58 13.94-22.4 20.07-34.06-37.65-.12-75.3-.01-112.94-.09-5.95.11-11.02-5.62-10.68-11.47.09-5.29-.33-10.62.24-15.88"/>
</svg>
