<?xml version="1.0" encoding="UTF-8"?>
<svg id="weka-logo-reversed" xmlns="http://www.w3.org/2000/svg" version="1.1" viewBox="0 0 300 62">
  <!-- Generator: Adobe Illustrator 29.4.0, SVG Export Plug-In . SVG Version: 2.1.0 Build 152)  -->
  <defs>
    <style>
      .st0 {
        fill: #fff;
      }

      .st1 {
        fill: #7c03ec;
      }
    </style>
  </defs>
  <path d="M65.5,0h17.3c1.3,0,2.3,1,2.3,2.3v17.3c0,2.1-2.5,3.1-3.9,1.6L63.8,4c-1.5-1.5-.4-3.9,1.6-3.9h0Z"/>
  <path d="M81.5,38.6L43.7.7c-1.5-1.5-4.1-.4-4.1,1.7v12.5c0,3.2,1.3,6.2,3.5,8.4l37.9,37.9c1.5,1.5,4.1.4,4.1-1.7v-12.5c0-3.2-1.3-6.2-3.5-8.4h0Z"/>
  <path d="M42,38.6L4.1.7C2.6-.8,0,.3,0,2.4v12.5c0,3.1,1.3,6.2,3.5,8.4l37.9,37.9c1.5,1.5,4.1.4,4.1-1.7v-12.5c0-3.2-1.3-6.2-3.5-8.4h0Z"/>
  <path class="st1" d="M65.5,0h17.3c1.3,0,2.3,1,2.3,2.3v17.3c0,2.1-2.5,3.1-3.9,1.6L63.8,4c-1.5-1.5-.4-3.9,1.6-3.9h0Z"/>
  <path class="st1" d="M81.5,38.6L43.7.7c-1.5-1.5-4.1-.4-4.1,1.7v12.5c0,3.2,1.3,6.2,3.5,8.4l37.9,37.9c1.5,1.5,4.1.4,4.1-1.7v-12.5c0-3.2-1.3-6.2-3.5-8.4h0Z"/>
  <path class="st1" d="M42,38.6L4.1.7C2.6-.8,0,.3,0,2.4v12.5c0,3.1,1.3,6.2,3.5,8.4l37.9,37.9c1.5,1.5,4.1.4,4.1-1.7v-12.5c0-3.2-1.3-6.2-3.5-8.4h0Z"/>
  <path class="st0" d="M279.7,11.9h-6.3l-17.5,38.1h8.6l4.1-8.9h15.9l4,8.9h8.8l-17.5-38.1h0ZM271.9,33.5l4.5-10,4.5,10h-9.1Z"/>
  <path class="st0" d="M241.2,11.9l-16.8,17.2V11.9h-8.1v38.1h8.1v-10.4l5-5,12.4,15.4h10.3l-17-21,17-17.1h-11Z"/>
  <path class="st0" d="M185.2,34.7h18.8v-7.7h-18.8v-7.4h21v-7.7h-29.1v38.2h29.1v-7.7h-21v-7.6h0Z"/>
  <path class="st0" d="M154.6,35.6l-7.9-23.7h-6.2l-7.9,23.7-8.2-23.7h-8.7l13.7,38.1h6.2l7.9-23,7.9,23h6.3l13.7-38.1h-8.5l-8.2,23.7h0Z"/>
  <path class="st0" d="M296.9,16.7c.2-.2.2-.5.2-.8s0-.6-.2-.8c-.1-.2-.3-.4-.6-.5-.2-.1-.4-.2-.7-.2h-2.2v4.4h1.1v-1.5h.8l.7,1.5h1.2l-.9-1.7c.2-.1.4-.2.5-.4h0ZM294.6,15.2h.8c.1,0,.3,0,.4.1s.2.2.2.5,0,.4-.2.5-.3.2-.4.2h-.8v-1.3h0Z"/>
  <path class="st0" d="M299.6,14.8c-.2-.6-.6-1.1-1-1.5-.4-.4-.9-.8-1.5-1-.6-.2-1.2-.4-1.9-.4s-1.3.1-1.9.4c-.6.2-1.1.6-1.5,1-.4.4-.8.9-1,1.5-.2.6-.4,1.2-.4,1.9s.1,1.3.4,1.9c.2.6.6,1.1,1,1.5s.9.8,1.5,1c.6.2,1.2.4,1.9.4s1.3-.1,1.9-.4c.6-.2,1.1-.6,1.5-1,.4-.4.8-.9,1-1.5.2-.6.4-1.2.4-1.9s-.1-1.3-.4-1.9ZM298.3,18.5c-.3.5-.7,1-1.3,1.3-.5.3-1.1.5-1.8.5s-1.3-.2-1.8-.5c-.5-.3-1-.7-1.3-1.3-.3-.5-.5-1.1-.5-1.8s.2-1.3.5-1.8c.3-.5.7-1,1.3-1.3.5-.3,1.1-.5,1.8-.5s1.3.2,1.8.5c.5.3,1,.7,1.3,1.3.3.5.5,1.1.5,1.8s-.2,1.3-.5,1.8h0Z"/>
  <path d="M279.7,11.9h-6.3l-17.5,38.1h8.6l4.1-8.9h15.9l4,8.9h8.8l-17.5-38.1h0ZM271.9,33.5l4.5-10,4.5,10h-9.1Z"/>
  <path d="M241.2,11.9l-16.8,17.2V11.9h-8.1v38.1h8.1v-10.4l5-5,12.4,15.4h10.3l-17-21,17-17.1h-11Z"/>
  <path d="M185.2,34.7h18.8v-7.7h-18.8v-7.4h21v-7.7h-29.1v38.2h29.1v-7.7h-21v-7.6h0Z"/>
  <path d="M154.6,35.6l-7.9-23.7h-6.2l-7.9,23.7-8.2-23.7h-8.7l13.7,38.1h6.2l7.9-23,7.9,23h6.3l13.7-38.1h-8.5l-8.2,23.7h0Z"/>
  <path class="st0" d="M296.9,16.7c.2-.2.2-.5.2-.8s0-.6-.2-.8c-.1-.2-.3-.4-.6-.5-.2-.1-.4-.2-.7-.2h-2.2v4.4h1.1v-1.5h.8l.7,1.5h1.2l-.9-1.7c.2-.1.4-.2.5-.4h0ZM294.6,15.2h.8c.1,0,.3,0,.4.1s.2.2.2.5,0,.4-.2.5-.3.2-.4.2h-.8v-1.3h0Z"/>
  <path class="st0" d="M299.6,14.8c-.2-.6-.6-1.1-1-1.5-.4-.4-.9-.8-1.5-1-.6-.2-1.2-.4-1.9-.4s-1.3.1-1.9.4c-.6.2-1.1.6-1.5,1-.4.4-.8.9-1,1.5-.2.6-.4,1.2-.4,1.9s.1,1.3.4,1.9c.2.6.6,1.1,1,1.5s.9.8,1.5,1c.6.2,1.2.4,1.9.4s1.3-.1,1.9-.4c.6-.2,1.1-.6,1.5-1,.4-.4.8-.9,1-1.5.2-.6.4-1.2.4-1.9s-.1-1.3-.4-1.9ZM298.3,18.5c-.3.5-.7,1-1.3,1.3-.5.3-1.1.5-1.8.5s-1.3-.2-1.8-.5c-.5-.3-1-.7-1.3-1.3-.3-.5-.5-1.1-.5-1.8s.2-1.3.5-1.8c.3-.5.7-1,1.3-1.3.5-.3,1.1-.5,1.8-.5s1.3.2,1.8.5c.5.3,1,.7,1.3,1.3.3.5.5,1.1.5,1.8s-.2,1.3-.5,1.8h0Z"/>
</svg>