<svg width="22" height="22" viewBox="0 0 22 22" fill="none" xmlns="http://www.w3.org/2000/svg">
<g id="Group 430">
<path id="Union" fill-rule="evenodd" clip-rule="evenodd" d="M10.999 0.297852C10.6476 0.297852 10.3025 0.390123 9.9981 0.565414L6.12961 2.77597L6.12614 2.77797C5.82154 2.95383 5.56854 3.2067 5.39252 3.51122C5.2165 3.81573 5.12365 4.1621 5.12329 4.51383L5.12329 8.93756C5.12333 8.978 5.1246 9.01836 5.12707 9.05858C5.09207 9.07609 5.05753 9.09464 5.02349 9.11424L1.155 11.3248L1.15153 11.3268C0.84693 11.5027 0.593928 11.7555 0.417909 12.06C0.24189 12.3646 0.149042 12.7109 0.148682 13.0627V17.4864C0.149043 17.8381 0.24189 18.1836 0.417909 18.4881C0.593928 18.7926 0.84693 19.0455 1.15153 19.2213L1.15501 19.2233L5.02149 21.4327L5.02351 21.4339C5.30679 21.597 5.62533 21.6882 5.9513 21.7001C5.97537 21.702 5.9997 21.703 6.02427 21.703C6.04879 21.703 6.07308 21.702 6.09711 21.7001C6.42319 21.6883 6.74184 21.597 7.02522 21.4339L7.0272 21.4327L10.8937 19.2233L10.8972 19.2213C10.9321 19.2011 10.9664 19.18 10.9999 19.1578C11.0335 19.18 11.0678 19.2011 11.1027 19.2213L11.1062 19.2233L14.9727 21.4327L14.9747 21.4339C15.258 21.597 15.5765 21.6882 15.9025 21.7001C15.9265 21.702 15.9509 21.703 15.9754 21.703C16 21.703 16.0243 21.702 16.0483 21.7001C16.3744 21.6883 16.693 21.597 16.9764 21.4339L16.9784 21.4327L20.8449 19.2233L20.8483 19.2213C21.1529 19.0455 21.4059 18.7926 21.582 18.4881C21.758 18.1836 21.8508 17.8372 21.8512 17.4855V13.0617C21.8508 12.71 21.758 12.3646 21.582 12.06C21.4059 11.7555 21.1529 11.5027 20.8483 11.3268L16.9784 9.11539L16.9764 9.11426C16.9417 9.09429 16.9065 9.07541 16.8708 9.05761C16.8733 9.01739 16.8746 8.97705 16.8746 8.93664V4.5129C16.8743 4.16118 16.7814 3.81573 16.6054 3.51122C16.4294 3.2067 16.1764 2.95383 15.8718 2.77796L12.0018 0.566565L11.9998 0.565431C11.6954 0.39013 11.3503 0.297852 10.999 0.297852ZM11.9 17.4919C11.9012 17.5254 11.9106 17.5582 11.9275 17.5873C11.9453 17.6182 11.9709 17.6438 12.0016 17.6619L12.0027 17.6625L15.0754 19.4183V15.7951L11.9 13.9702V17.4855C11.9 17.4876 11.9 17.4898 11.9 17.4919ZM16.8754 19.4184L19.9483 17.6625L19.9494 17.6618C19.9802 17.6438 20.0057 17.6181 20.0236 17.5873C20.0415 17.5562 20.0511 17.5209 20.0512 17.485V13.9699L16.8754 15.795V19.4184ZM19.1345 12.4206L15.9753 14.2362L12.8164 12.4207L15.8692 10.6762L15.8727 10.6742C15.9039 10.6562 15.9394 10.6467 15.9755 10.6467C16.0116 10.6467 16.0471 10.6562 16.0784 10.6742L19.1345 12.4206ZM10.0999 13.97L6.92427 15.795V19.4184L9.99716 17.6625L9.99824 17.6618C10.029 17.6438 10.0546 17.6181 10.0724 17.5873C10.0892 17.5582 10.0986 17.5255 10.0999 17.492C10.0999 17.4901 10.0999 17.4883 10.0999 17.4864V13.97ZM6.12719 10.6742L9.18334 12.4206L6.02417 14.2362L2.86518 12.4207L5.91802 10.6762L5.92149 10.6742C5.95276 10.6562 5.98824 10.6467 6.02435 10.6467C6.06045 10.6467 6.09592 10.6562 6.12719 10.6742ZM1.94868 17.4848V13.9701L5.12427 15.7951V19.4183L2.05153 17.6625L2.05047 17.6619C2.0197 17.6438 1.99414 17.6182 1.97629 17.5873C1.95829 17.5561 1.94877 17.5208 1.94868 17.4848ZM11.8989 10.8696L14.9718 9.11365L14.9728 9.11302C15.0036 9.09501 15.0292 9.06932 15.047 9.03845C15.065 9.00735 15.0745 8.97208 15.0746 8.93617L15.0746 5.42105L11.8989 7.24619V10.8696ZM14.158 3.87178L11.1018 2.12542C11.0705 2.10736 11.0351 2.09785 10.999 2.09785C10.9628 2.09785 10.9274 2.10736 10.8961 2.12541L10.8926 2.12741L7.83979 3.87189L10.9988 5.6874L14.158 3.87178ZM6.92329 5.42126V8.936C6.92338 8.97197 6.9329 9.0073 6.9509 9.03845C6.96875 9.06932 6.99431 9.09502 7.02508 9.11303L7.02614 9.11365L10.0989 10.8695V7.24631L6.92329 5.42126Z" fill="#FF7A00"/>
</g>
</svg>
