<svg width="14" height="17" viewBox="0 0 14 17" fill="none" xmlns="http://www.w3.org/2000/svg">
<g id="Group 423">
<path id="Vector" d="M5.86724 9.19554V10.4507C5.86724 10.5614 5.99605 10.6225 6.08193 10.5547L8.42545 8.70503C8.44124 8.69268 8.45402 8.67688 8.4628 8.65886C8.47158 8.64083 8.47615 8.62104 8.47615 8.60099C8.47615 8.58094 8.47158 8.56115 8.4628 8.54312C8.45402 8.52509 8.44124 8.5093 8.42545 8.49694L6.08193 6.64723C5.99605 6.57787 5.86724 6.64062 5.86724 6.75128V8.00644H0.681439C0.608771 8.00644 0.549316 8.06589 0.549316 8.13856V9.06342C0.549316 9.13608 0.608771 9.19554 0.681439 9.19554H5.86724Z" fill="currentColor"/>
<path id="Subtract" fill-rule="evenodd" clip-rule="evenodd" d="M1.8917 4.03667C3.56442 4.03667 5.54711 3.05961 6.90005 1.87894C6.94765 1.83898 7.00783 1.81706 7.07002 1.81706C7.13218 1.81706 7.19233 1.83896 7.23992 1.87888C8.60081 3.06744 10.5761 4.03667 12.2483 4.03667C12.2851 4.03667 12.3204 4.05128 12.3464 4.07727C12.3723 4.10326 12.3869 4.13852 12.3869 4.17528V9.3536C12.3869 11.0442 11.8023 12.2813 10.8783 13.2292C9.93875 14.1933 8.62139 14.8844 7.12707 15.4056C7.0973 15.4153 7.06511 15.4147 7.03574 15.4037C7.03122 15.402 7.02668 15.4004 7.02212 15.3988C5.5232 14.8812 4.20312 14.1916 3.26225 13.2279C2.76961 12.7234 2.37348 12.1365 2.11088 11.4425C2.07589 11.35 1.98844 11.2869 1.88957 11.2869H1.10061C0.948173 11.2869 0.837401 11.432 0.884336 11.577C1.19961 12.5513 1.72488 13.3744 2.40199 14.0679C3.5255 15.2186 5.04004 15.9857 6.62379 16.5333C6.91073 16.6381 7.22497 16.6419 7.51447 16.5438L7.5194 16.5421C9.10109 15.9908 10.6157 15.2212 11.7393 14.0684C12.8793 12.8988 13.5893 11.3618 13.5893 9.3536V4.17528C13.5893 3.81964 13.448 3.47858 13.1965 3.22711C12.945 2.97564 12.604 2.83436 12.2483 2.83436C10.9629 2.83436 9.25608 2.04456 8.02792 0.970791L8.02273 0.966309C7.75716 0.739411 7.41932 0.614746 7.07002 0.614746C6.72072 0.614746 6.38288 0.739411 6.11731 0.966309L6.11231 0.970629C4.89095 2.03756 3.17668 2.83436 1.8917 2.83436C1.53606 2.83436 1.195 2.97564 0.943527 3.22711C0.692056 3.47858 0.550781 3.81964 0.550781 4.17528V5.68325C0.550781 5.81095 0.654299 5.91447 0.781995 5.91447H1.52188C1.64958 5.91447 1.75309 5.81095 1.75309 5.68325V4.17528C1.75309 4.13852 1.7677 4.10326 1.79369 4.07727C1.81968 4.05128 1.85494 4.03667 1.8917 4.03667Z" fill="currentColor"/>
</g>
</svg>
