<svg width="17" height="17" viewBox="0 0 17 17" fill="none" xmlns="http://www.w3.org/2000/svg">
<g clip-path="url(#clip0_324_8391)">
<path d="M11.9797 1.24069V2.19705C11.9797 2.28472 11.9025 2.35645 11.8082 2.35645H3.57628C3.48196 2.35645 3.40479 2.28472 3.40479 2.19705V1.24069C3.40479 1.15303 3.48196 1.0813 3.57628 1.0813H11.8082C11.9025 1.0813 11.9797 1.15303 11.9797 1.24069Z" fill="black"/>
<path d="M7.6151 14.9345L6.04548 14.9356L6.04593 4.92426H13.4719V8.50375C13.4719 8.58232 13.5361 8.64661 13.6147 8.64661H14.6147C14.6933 8.64661 14.7576 8.58232 14.7576 8.50375V4.20998C14.7576 3.89391 14.5022 3.63855 14.1861 3.63855H5.33165C5.01558 3.63855 4.76022 3.89391 4.76022 4.20998L4.75977 15.6499C4.75977 15.9659 5.01512 16.2213 5.33119 16.2213L7.6151 16.2203C7.69367 16.2203 7.75796 16.156 7.75796 16.0774V15.0774C7.75796 14.9988 7.69367 14.9345 7.6151 14.9345Z" fill="#FF7A00"/>
<path fill-rule="evenodd" clip-rule="evenodd" d="M3.39209 2.85022H3.39997V2.36152H3.93677V2.3551H11.8092C11.9035 2.3551 11.9807 2.28338 11.9807 2.19571V1.23935C11.9807 1.15168 11.9035 1.07996 11.8092 1.07996H3.93677V1.07581H2.68569C2.36961 1.07581 2.11426 1.33116 2.11426 1.64723V2.85022H2.11694L2.11694 13.8567C2.11694 13.9865 2.18867 14.0927 2.27634 14.0927H3.2327C3.32036 14.0927 3.39209 13.9865 3.39209 13.8567L3.39209 2.85022Z" fill="#FF7A00"/>
<path fill-rule="evenodd" clip-rule="evenodd" d="M10.0973 8.57375C10.306 8.45981 10.5603 8.46892 10.7603 8.5975L15.7588 11.8108C15.9449 11.9304 16.0573 12.1364 16.0573 12.3576C16.0573 12.5788 15.9449 12.7848 15.7588 12.9044L10.7603 16.1177C10.5603 16.2463 10.306 16.2554 10.0973 16.1415C9.88862 16.0275 9.75879 15.8087 9.75879 15.571V9.14426C9.75879 8.90649 9.88862 8.68769 10.0973 8.57375ZM11.0588 10.3348V14.3804L14.2053 12.3576L11.0588 10.3348Z" fill="#FF7A00"/>
</g>
<defs>
<clipPath id="clip0_324_8391">
<rect width="16" height="16" fill="white" transform="translate(0.827637 0.862793)"/>
</clipPath>
</defs>
</svg>
