<svg width="24" height="24" viewBox="0 0 24 24" fill="none" xmlns="http://www.w3.org/2000/svg">
<path d="M16.7281 0.566727V2.00127C16.7281 2.13277 16.6123 2.24036 16.4708 2.24036H4.12297C3.98148 2.24036 3.86572 2.13277 3.86572 2.00127V0.566727C3.86572 0.435227 3.98148 0.327637 4.12297 0.327637H16.4708C16.6123 0.327637 16.7281 0.435227 16.7281 0.566727Z" fill="#00BD9B"/>
<path d="M2.17171 2.14954L3.60625 2.14954C3.73775 2.14954 3.84534 2.30881 3.84534 2.50348L3.84534 19.4927C3.84534 19.6874 3.73775 19.8467 3.60625 19.8467L2.17171 19.8467C2.04021 19.8467 1.93262 19.6874 1.93262 19.4927L1.93262 2.50348C1.93262 2.30881 2.04021 2.14954 2.17171 2.14954Z" fill="#00BD9B"/>
<path d="M10.0708 21.1076L7.71641 21.1091L7.71709 6.09215H18.856V11.4614C18.856 11.5792 18.9524 11.6757 19.0703 11.6757H20.5703C20.6881 11.6757 20.7845 11.5792 20.7845 11.4614V5.02072C20.7845 4.54661 20.4015 4.16357 19.9274 4.16357H6.64567C6.17156 4.16357 5.78852 4.54661 5.78852 5.02072L5.78784 22.1806C5.78784 22.6547 6.17088 23.0377 6.64498 23.0377L10.0708 23.0361C10.1887 23.0361 10.2851 22.9397 10.2851 22.8219V21.3219C10.2851 21.204 10.1887 21.1076 10.0708 21.1076ZM22.008 22.4886L19.5089 19.9895C20.1062 19.1993 20.4624 18.2136 20.4624 17.1448C20.4624 14.5413 18.3517 12.4306 15.7481 12.4306C13.1446 12.4306 11.0339 14.5413 11.0339 17.1448C11.0339 19.7484 13.1446 21.8591 15.7481 21.8591C16.7071 21.8591 17.5964 21.5725 18.341 21.0824L20.8776 23.619C20.9205 23.6618 20.974 23.6806 21.0276 23.6806C21.0812 23.6806 21.1374 23.6591 21.1776 23.619L22.008 22.7886C22.0277 22.7689 22.0434 22.7456 22.0541 22.7198C22.0648 22.6941 22.0703 22.6665 22.0703 22.6386C22.0703 22.6107 22.0648 22.5831 22.0541 22.5574C22.0434 22.5316 22.0277 22.5083 22.008 22.4886ZM15.7481 20.1448C14.0901 20.1448 12.7481 18.8029 12.7481 17.1448C12.7481 15.4868 14.0901 14.1448 15.7481 14.1448C17.4062 14.1448 18.7481 15.4868 18.7481 17.1448C18.7481 18.8029 17.4062 20.1448 15.7481 20.1448Z" fill="#00BD9B"/>
<path fill-rule="evenodd" clip-rule="evenodd" d="M3.84644 2.98096H3.85826V2.24791H4.66345V2.23828H16.472C16.6135 2.23828 16.7293 2.13069 16.7293 1.99919V0.564651C16.7293 0.433152 16.6135 0.325562 16.472 0.325562H4.66345V0.319336H2.78683C2.31272 0.319336 1.92969 0.702372 1.92969 1.17648V2.98096H1.93372L1.93372 19.4907C1.93372 19.6853 2.04131 19.8446 2.17281 19.8446H3.60735C3.73885 19.8446 3.84644 19.6853 3.84644 19.4907L3.84644 2.98096Z" fill="#00BD9B"/>
</svg>
