<svg width="14" height="16" viewBox="0 0 14 16" fill="none" xmlns="http://www.w3.org/2000/svg">
<g id="Group 422">
<path id="Vector" d="M5.54186 13.9342L3.97224 13.9352L3.97269 3.9239H11.3986V7.50338C11.3986 7.58195 11.4629 7.64624 11.5415 7.64624H12.5415C12.62 7.64624 12.6843 7.58195 12.6843 7.50338V3.20961C12.6843 2.89354 12.429 2.63818 12.1129 2.63818H3.25841C2.94233 2.63818 2.68698 2.89354 2.68698 3.20961L2.68652 14.6495C2.68652 14.9656 2.94188 15.2209 3.25795 15.2209L5.54186 15.2199C5.62043 15.2199 5.68471 15.1556 5.68471 15.077V14.077C5.68471 13.9985 5.62043 13.9342 5.54186 13.9342ZM13.4999 14.8549L11.8339 13.1888C12.2321 12.662 12.4696 12.0049 12.4696 11.2924C12.4696 9.55665 11.0624 8.14951 9.32673 8.14951C7.59101 8.14951 6.18387 9.55665 6.18387 11.2924C6.18387 13.0281 7.59101 14.4352 9.32673 14.4352C9.96601 14.4352 10.5589 14.2442 11.0553 13.9174L12.7464 15.6084C12.7749 15.637 12.8107 15.6495 12.8464 15.6495C12.8821 15.6495 12.9196 15.6352 12.9464 15.6084L13.4999 15.0549C13.5131 15.0418 13.5236 15.0262 13.5307 15.009C13.5378 14.9919 13.5415 14.9735 13.5415 14.9549C13.5415 14.9363 13.5378 14.9179 13.5307 14.9007C13.5236 14.8836 13.5131 14.868 13.4999 14.8549ZM9.32673 13.2924C8.22137 13.2924 7.32673 12.3977 7.32673 11.2924C7.32673 10.187 8.22137 9.29237 9.32673 9.29237C10.4321 9.29237 11.3267 10.187 11.3267 11.2924C11.3267 12.3977 10.4321 13.2924 9.32673 13.2924Z" fill="#FF7A00"/>
<path id="Union" fill-rule="evenodd" clip-rule="evenodd" d="M1.39209 1.8501H1.39997V1.3614H1.93677V1.35498H9.80915C9.90348 1.35498 9.98065 1.28325 9.98065 1.19559V0.239227C9.98065 0.151561 9.90348 0.079834 9.80915 0.079834H1.93677V0.0756836H0.685686C0.369615 0.0756836 0.114258 0.331041 0.114258 0.647112V1.8501H0.116943L0.116943 12.8566C0.116943 12.9863 0.18867 13.0925 0.276337 13.0925H1.2327C1.32036 13.0925 1.39209 12.9863 1.39209 12.8566L1.39209 1.8501Z" fill="#FF7A00"/>
</g>
</svg>
