<svg width="24" height="24" viewBox="0 0 24 24" fill="none" xmlns="http://www.w3.org/2000/svg">
<path fill-rule="evenodd" clip-rule="evenodd" d="M4.26444 4.53923C3.91159 4.81731 3.9001 4.97984 3.9001 5.0001C3.9001 5.02035 3.91159 5.18289 4.26444 5.46096C4.60714 5.73104 5.15881 6.01363 5.92074 6.2676C7.43519 6.77242 9.58463 7.1001 12.0001 7.1001C14.4156 7.1001 16.565 6.77242 18.0795 6.2676C18.8414 6.01363 19.3931 5.73104 19.7358 5.46096C20.0886 5.18289 20.1001 5.02035 20.1001 5.0001C20.1001 4.97984 20.0886 4.81731 19.7358 4.53923C19.3931 4.26915 18.8414 3.98657 18.0795 3.73259C16.565 3.22778 14.4156 2.9001 12.0001 2.9001C9.58463 2.9001 7.43519 3.22778 5.92074 3.73259C5.15881 3.98657 4.60714 4.26915 4.26444 4.53923ZM3.15029 3.12549C2.59229 3.56525 2.1001 4.19193 2.1001 5.0001V12.0001V19.0001C2.1001 19.7826 2.56696 20.4035 3.12093 20.8493C3.68322 21.3018 4.45205 21.6754 5.35153 21.9752C7.15644 22.5769 9.54729 22.9001 12.0001 22.9001C14.4529 22.9001 16.8438 22.5769 18.6487 21.9752C19.5481 21.6754 20.317 21.3018 20.8793 20.8493C21.4332 20.4035 21.9001 19.7826 21.9001 19.0001V12.0001V5.0001C21.9001 4.19193 21.4079 3.56525 20.8499 3.12549C20.2818 2.67774 19.5154 2.31388 18.6487 2.02496C16.9058 1.44399 14.5552 1.1001 12.0001 1.1001C9.445 1.1001 7.09444 1.44399 5.35153 2.02496C4.48478 2.31388 3.71843 2.67774 3.15029 3.12549ZM20.1001 12.0001V7.36106C19.6684 7.59501 19.1772 7.79905 18.6487 7.97523C16.9058 8.5562 14.5552 8.9001 12.0001 8.9001C9.445 8.9001 7.09444 8.5562 5.35153 7.97523C4.82299 7.79905 4.33179 7.59501 3.9001 7.36106V12.0001C3.9001 12.0132 3.90735 12.1717 4.24943 12.447C4.5832 12.7156 5.1324 13.0048 5.92074 13.2676C7.49149 13.7912 9.67901 14.1001 12.0001 14.1001C14.3212 14.1001 16.5087 13.7912 18.0795 13.2676C18.8678 13.0048 19.417 12.7156 19.7508 12.447C20.0928 12.1717 20.1001 12.0132 20.1001 12.0001ZM3.9001 14.3603C4.32694 14.5921 4.81608 14.7968 5.35153 14.9752C7.15644 15.5769 9.54729 15.9001 12.0001 15.9001C14.4529 15.9001 16.8438 15.5769 18.6487 14.9752C19.1841 14.7968 19.6733 14.5921 20.1001 14.3603V19.0001C20.1001 19.0132 20.0928 19.1717 19.7508 19.447C19.417 19.7156 18.8678 20.0048 18.0795 20.2676C16.5087 20.7912 14.3212 21.1001 12.0001 21.1001C9.67901 21.1001 7.49149 20.7912 5.92074 20.2676C5.1324 20.0048 4.5832 19.7156 4.24943 19.447C3.90735 19.1717 3.9001 19.0132 3.9001 19.0001V14.3603Z" fill="#00BD9B"/>
</svg>
