<svg width="17" height="17" viewBox="0 0 17 17" fill="none" xmlns="http://www.w3.org/2000/svg">
<g id="Menu/Icon">
<path id="Union" fill-rule="evenodd" clip-rule="evenodd" d="M3.67043 3.61991C3.4352 3.80529 3.42754 3.91365 3.42754 3.92715C3.42754 3.94065 3.4352 4.04901 3.67043 4.23439C3.8989 4.41445 4.26668 4.60283 4.77464 4.77215C5.78427 5.1087 7.21723 5.32715 8.82754 5.32715C10.4379 5.32715 11.8708 5.1087 12.8804 4.77215C13.3884 4.60283 13.7562 4.41445 13.9846 4.23439C14.2199 4.04901 14.2275 3.94065 14.2275 3.92715C14.2275 3.91365 14.2199 3.80529 13.9846 3.61991C13.7562 3.43985 13.3884 3.25146 12.8804 3.08214C11.8708 2.7456 10.4379 2.52715 8.82754 2.52715C7.21723 2.52715 5.78427 2.7456 4.77464 3.08214C4.26668 3.25146 3.8989 3.43985 3.67043 3.61991ZM4.39516 5.91057C4.0428 5.79312 3.71533 5.65709 3.42754 5.50113V8.59381C3.42754 8.60258 3.43237 8.70822 3.66043 8.89174C3.88294 9.07081 4.24907 9.26363 4.77464 9.43882C5.8218 9.78787 7.28015 9.99381 8.82754 9.99381C10.3749 9.99381 11.8333 9.78787 12.8804 9.43882C13.406 9.26363 13.7721 9.07081 13.9947 8.89174C14.2227 8.70822 14.2275 8.60258 14.2275 8.59381V5.50113C13.9397 5.65709 13.6123 5.79312 13.2599 5.91057C12.098 6.29789 10.5309 6.52715 8.82754 6.52715C7.12414 6.52715 5.5571 6.29789 4.39516 5.91057ZM14.2275 10.1673C13.943 10.3218 13.6169 10.4583 13.2599 10.5772C12.0566 10.9783 10.4627 11.1938 8.82754 11.1938C7.19233 11.1938 5.59843 10.9783 4.39516 10.5772C4.0382 10.4583 3.7121 10.3218 3.42754 10.1673V13.2605C3.42754 13.2692 3.43237 13.3749 3.66043 13.5584C3.88294 13.7375 4.24907 13.9303 4.77464 14.1055C5.8218 14.4545 7.28015 14.6605 8.82754 14.6605C10.3749 14.6605 11.8333 14.4545 12.8804 14.1055C13.406 13.9303 13.7721 13.7375 13.9947 13.5584C14.2227 13.3749 14.2275 13.2692 14.2275 13.2605V10.1673ZM2.22754 8.59381V3.92715V3.92521C2.22833 3.38736 2.55611 2.97023 2.92766 2.67741C3.30643 2.37891 3.81733 2.13634 4.39516 1.94372C5.5571 1.55641 7.12414 1.32715 8.82754 1.32715C10.5309 1.32715 12.098 1.55641 13.2599 1.94372C13.8378 2.13634 14.3486 2.37891 14.7274 2.67741C15.0994 2.97058 15.4275 3.38837 15.4275 3.92715V8.59381V13.2605C15.4275 13.7822 15.1163 14.1961 14.747 14.4933C14.3721 14.795 13.8596 15.044 13.2599 15.2439C12.0566 15.645 10.4627 15.8605 8.82754 15.8605C7.19233 15.8605 5.59843 15.645 4.39516 15.2439C3.7955 15.044 3.28296 14.795 2.9081 14.4933C2.53878 14.1961 2.22754 13.7822 2.22754 13.2605V8.59381Z" fill="currentColor"/>
</g>
</svg>
