<svg width="17" height="17" viewBox="0 0 17 17" fill="none" xmlns="http://www.w3.org/2000/svg">
<g id="Menu/Icon">
<path id="Union" fill-rule="evenodd" clip-rule="evenodd" d="M11.4611 7.22001C11.4611 7.36484 11.3426 7.48333 11.1978 7.48333H9.43499V9.13898H14.5778V11.639H15.5421C15.6207 11.639 15.685 11.7033 15.685 11.7818V14.9247C15.685 15.0033 15.6207 15.0676 15.5421 15.0676H12.3993C12.3207 15.0676 12.2564 15.0033 12.2564 14.9247V11.7818C12.2564 11.7033 12.3207 11.639 12.3993 11.639H13.3636V10.3533H9.43499V11.639H10.3993C10.4778 11.639 10.5421 11.7033 10.5421 11.7818V14.9247C10.5421 15.0033 10.4778 15.0676 10.3993 15.0676H7.25642C7.17785 15.0676 7.11356 15.0033 7.11356 14.9247V11.7818C7.11356 11.7033 7.17785 11.639 7.25642 11.639H8.2207V10.3533H4.29213V11.639H5.25642C5.33499 11.639 5.39927 11.7033 5.39927 11.7818V14.9247C5.39927 15.0033 5.33499 15.0676 5.25642 15.0676H2.11356C2.03499 15.0676 1.9707 15.0033 1.9707 14.9247V11.7818C1.9707 11.7033 2.03499 11.639 2.11356 11.639H3.07785V9.13898H8.2207V7.48333H6.45791C6.31308 7.48333 6.19458 7.36484 6.19458 7.22001V2.48012C6.19458 2.33529 6.31308 2.2168 6.45791 2.2168H11.1978C11.3426 2.2168 11.4611 2.33529 11.4611 2.48012V7.22001ZM7.32983 3.35205V6.34794H10.3257V3.35205H7.32983ZM4.25646 13.8765C4.25646 13.9033 4.23503 13.9247 4.20825 13.9247H3.16003C3.13325 13.9247 3.11182 13.9033 3.11182 13.8765V12.8283C3.11182 12.8015 3.13325 12.7801 3.16003 12.7801H4.20825C4.23503 12.7801 4.25646 12.8015 4.25646 12.8283V13.8765ZM9.39928 13.8765C9.39928 13.9033 9.37785 13.9247 9.35107 13.9247H8.30285C8.27607 13.9247 8.25464 13.9033 8.25464 13.8765V12.8283C8.25464 12.8015 8.27607 12.7801 8.30285 12.7801H9.35107C9.37785 12.7801 9.39928 12.8015 9.39928 12.8283V13.8765ZM14.4939 13.9247C14.5207 13.9247 14.5421 13.9033 14.5421 13.8765V12.8283C14.5421 12.8015 14.5207 12.7801 14.4939 12.7801H13.4457C13.4189 12.7801 13.3975 12.8015 13.3975 12.8283V13.8765C13.3975 13.9033 13.4189 13.9247 13.4457 13.9247H14.4939Z" fill="#FF7A00"/>
</g>
</svg>
