<svg width="17" height="17" viewBox="0 0 17 17" fill="none" xmlns="http://www.w3.org/2000/svg">
<g id="Menu/Icon" clip-path="url(#clip0_80_787)">
<path id="Union" fill-rule="evenodd" clip-rule="evenodd" d="M8.2021 1.59125C8.62031 1.34979 9.13557 1.34979 9.55378 1.59125L14.8784 4.66541C15.2966 4.90686 15.5542 5.35309 15.5542 5.836V11.9843C15.5542 12.4672 15.2966 12.9135 14.8784 13.1549L9.55378 16.2291C9.13557 16.4705 8.62031 16.4705 8.2021 16.2291L2.8775 13.1549C2.45929 12.9135 2.20166 12.4672 2.20166 11.9843V5.836C2.20166 5.35309 2.45929 4.90686 2.8775 4.66541L8.2021 1.59125ZM8.87794 2.76184L13.5242 5.44437L8.8524 8.12933L4.20618 5.45909L8.87794 2.76184ZM3.55335 11.9843V6.64291L8.17669 9.3V14.6536L3.55335 11.9843ZM9.52837 14.6829L14.2025 11.9843V6.61355L9.52837 9.29985V14.6829Z" fill="#FF7A00"/>
</g>
<defs>
<clipPath id="clip0_80_787">
<rect width="16" height="16" fill="white" transform="translate(0.87793 0.910156)"/>
</clipPath>
</defs>
</svg>
