<svg width="17" height="17" viewBox="0 0 17 17" fill="none" xmlns="http://www.w3.org/2000/svg">
<g id="Menu/Icon" clip-path="url(#clip0_80_225)">
<path id="Union" fill-rule="evenodd" clip-rule="evenodd" d="M8.53955 5.31364C9.01299 5.31364 9.44983 5.15697 9.80107 4.89264L12.7524 7.84398C12.7312 7.88773 12.7114 7.93232 12.6932 7.9777H4.96207C4.65195 7.20517 3.89594 6.65967 3.01253 6.65967C1.85277 6.65967 0.912598 7.59984 0.912598 8.7596C0.912598 9.91936 1.85277 10.8595 3.01253 10.8595C3.37418 10.8595 3.71447 10.7681 4.01156 10.6071L6.66095 13.1246C6.51932 13.4072 6.43962 13.7263 6.43962 14.064C6.43962 15.2237 7.37979 16.1639 8.53955 16.1639C9.69931 16.1639 10.6395 15.2237 10.6395 14.064C10.6395 12.9042 9.69931 11.964 8.53955 11.964C8.20397 11.964 7.88677 12.0427 7.60542 12.1827L4.92255 9.6335C4.96987 9.53024 5.00907 9.42248 5.03932 9.31104H12.616C12.8581 10.2033 13.6738 10.8595 14.6427 10.8595C15.8025 10.8595 16.7427 9.91936 16.7427 8.7596C16.7427 7.59984 15.8025 6.65967 14.6427 6.65967C14.2976 6.65967 13.9718 6.74295 13.6846 6.89052L10.5648 3.77076C10.6135 3.59335 10.6395 3.40657 10.6395 3.2137C10.6395 2.05394 9.69931 1.11377 8.53955 1.11377C7.37979 1.11377 6.43962 2.05394 6.43962 3.2137C6.43962 4.37347 7.37979 5.31364 8.53955 5.31364ZM8.53949 4.11205C9.03566 4.11205 9.4379 3.70982 9.4379 3.21364C9.4379 2.71746 9.03566 2.31523 8.53949 2.31523C8.04331 2.31523 7.64108 2.71746 7.64108 3.21364C7.64108 3.70982 8.04331 4.11205 8.53949 4.11205ZM8.53949 14.9623C9.03566 14.9623 9.4379 14.5601 9.4379 14.0639C9.4379 13.5677 9.03566 13.1655 8.53949 13.1655C8.04331 13.1655 7.64108 13.5677 7.64108 14.0639C7.64108 14.5601 8.04331 14.9623 8.53949 14.9623ZM3.91088 8.75954C3.91088 9.25572 3.50865 9.65795 3.01247 9.65795C2.51629 9.65795 2.11406 9.25572 2.11406 8.75954C2.11406 8.26336 2.51629 7.86113 3.01247 7.86113C3.50865 7.86113 3.91088 8.26336 3.91088 8.75954ZM14.6427 9.65795C15.1389 9.65795 15.5411 9.25572 15.5411 8.75954C15.5411 8.26336 15.1389 7.86113 14.6427 7.86113C14.1465 7.86113 13.7443 8.26336 13.7443 8.75954C13.7443 9.25572 14.1465 9.65795 14.6427 9.65795Z" fill="#FF7A00"/>
</g>
<defs>
<clipPath id="clip0_80_225">
<rect width="16" height="16" fill="white" transform="translate(0.827637 0.638672)"/>
</clipPath>
</defs>
</svg>
