<?xml version="1.0" encoding="UTF-8"?>
<svg width="159" height="26" fill="none" version="1.1" viewBox="0 0 159 26" xmlns="http://www.w3.org/2000/svg">
 <g id="white logo_수정">
  <g fill="#fff">
   <g id="logo_white">
    <path id="Vector" d="m134.75 7.6609h2.358l-1.192-3.1906-1.166 3.1906z"/>
    <path d="m140.61 0.94629h-6.154c-3.307 0-6.044 2.7745-6.044 6.1871v0.3052c0 3.3848 2.71 6.187 6.044 6.187h6.154c3.307 0 6.044-2.7744 6.044-6.187v-0.3052c0-3.3849-2.71-6.1871-6.044-6.1871zm-2.521 9.4055-0.624-1.7202h-3.063l-0.623 1.7202h-1.274l2.71-6.9085h1.491l2.738 6.9085h-1.355zm3.551 0h-1.22v-6.9085h1.22v6.9085z"/>
    <path d="m0 24.536v-21.696h3.7136v8.2956l-0.65056 2.2751h0.94873c0.70477-2.1364 2.304-3.9952 5.7737-3.9952 3.4697 0 6.5327 3.4126 6.5327 7.713s-2.3312 7.713-6.5327 7.713c-4.2015 0-5.0689-1.8589-5.7737-3.9675h-0.94873l0.65056 2.2473v1.415h-3.7136zm8.1862-2.9964c2.6835 0 4.3912-1.3317 4.3912-4.4114s-1.7077-4.4114-4.3912-4.4114c-2.6836 0-4.4726 1.3317-4.4726 4.4114s1.8161 4.4114 4.4726 4.4114z"/>
    <path d="m34.915 24.586h-3.6865v-1.415l0.6506-2.2473h-0.9487c-0.7048 2.1086-2.4938 3.9675-5.7737 3.9675s-6.9122-3.4126-6.9122-7.713c0-4.3005 2.5481-7.7131 6.9122-7.7131s5.0689 1.8589 5.7737 3.9953h0.9487l-0.6506-2.2751v-1.415h3.6865v14.816zm-8.3759-11.792c-2.6835 0-4.581 1.2208-4.581 4.4114 0 3.1907 1.8975 4.4114 4.581 4.4114 2.6836 0 4.6623-1.2207 4.6623-4.4114 0-3.1906-2.0329-4.4114-4.6623-4.4114z"/>
    <path d="m44.483 9.4648c3.5238 0 7.1019 1.9699 7.4001 6.2426h-3.7136c-0.2982-1.9144-1.7077-2.9132-3.6594-2.9132s-3.9846 1.8312-3.9846 4.4114c0 2.5803 1.3282 4.4114 3.9846 4.4114s3.3883-0.9988 3.6594-2.9132h3.7136c-0.2982 4.245-3.8763 6.2426-7.4001 6.2426s-7.6982-3.0242-7.6982-7.713c0-4.6889 3.063-7.7131 7.6982-7.7131v-0.05548z"/>
    <path d="m78.448 9.4648c4.3371 0 7.2917 2.719 7.2917 7.2414v1.2485h-11.168c0.0542 2.1641 1.3011 3.8288 4.3099 3.8288s3.2799-0.8323 3.6594-2.3861h3.7136c-0.4066 2.1919-2.548 5.4935-7.4001 5.4935-4.852 0-7.8066-3.6623-7.8066-7.8795s3.063-7.5188 7.4-7.5188v-0.02774zm3.7678 6.1871c0-1.6369-1.0842-3.0519-3.7678-3.0519-2.6835 0-3.8762 1.415-3.8762 3.0519h7.644z"/>
    <path d="m92.49 18.648v5.9096h-3.7135v-14.816h3.7135v2.1086l-0.6505 2.2751h0.9487c0.5692-2.6635 2.3854-4.6612 5.5026-4.6612 3.1168 0 5.7198 2.3029 5.7198 6.7143v8.4066h-3.687v-7.8517c0-2.8577-0.9485-3.9675-3.2526-3.9675-2.304 0-4.5539 1.8034-4.5539 5.9096l-0.0271-0.0277z"/>
    <path d="m122.64 24.536h-3.714v-1.415l0.705-2.2473h-0.976c-0.705 2.1086-2.277 3.9675-5.774 3.9675-3.496 0-6.532-3.4126-6.532-7.713s2.331-7.713 6.532-7.713c4.202 0 5.069 1.8588 5.774 3.9952h0.976l-0.705-2.2751v-8.2956h3.714v21.696zm-8.186-11.792c-2.684 0-4.392 1.3318-4.392 4.4114 0 3.0797 1.708 4.4114 4.392 4.4114 2.683 0 4.472-1.3317 4.472-4.4114 0-3.0796-1.789-4.4114-4.472-4.4114z"/>
    <path d="m64.732 9.8255-6.7495 5.8819v-6.2426h-3.7407v15.176h3.7407v-4.3282l2.6835-2.3028 5.0418 6.631h4.4726l-6.8579-8.9061 6.8579-5.9096h-5.4484z"/>
   </g>
   <g id="WebUI">
    <g fill="#fff" stroke-width=".2765" aria-label="Model Player">
     <path d="m129.84 17.068 2.4734 6.0592h0.0972l2.4734-6.0592h1.4473v7.8197h-1.1341v-5.6488h-0.0756l-2.2898 5.638h-0.93965l-2.3006-5.6488h-0.0648v5.6596h-1.1341v-7.8197z"/>
     <path d="m140.33 25.006q-0.82085 0-1.4473-0.37802-0.62104-0.37802-0.96126-1.0585-0.33482-0.68584-0.33482-1.5877t0.33482-1.5877q0.34022-0.69124 0.96126-1.0693 0.62644-0.37802 1.4473-0.37802 0.81545 0 1.4365 0.37802 0.62104 0.37802 0.95586 1.0693 0.34022 0.68584 0.34022 1.5877t-0.34022 1.5877q-0.33482 0.68044-0.95586 1.0585t-1.4365 0.37802zm-1.5877-3.0242q0 0.57784 0.17821 1.0477 0.17821 0.46443 0.53463 0.73985 0.35643 0.27542 0.87486 0.27542 0.50763 0 0.85865-0.27542 0.35643-0.27542 0.52924-0.73985 0.17821-0.46983 0.17821-1.0477 0-0.57784-0.17821-1.0477-0.17281-0.47523-0.52924-0.75605-0.35102-0.28082-0.85865-0.28082-0.51843 0-0.87486 0.28082-0.35642 0.28082-0.53463 0.75605-0.17821 0.46983-0.17821 1.0477z"/>
     <path d="m146.39 25.006q-0.70744-0.0054-1.2637-0.36722-0.55623-0.36722-0.87485-1.0531-0.31322-0.69124-0.31322-1.6147 0-0.93426 0.31862-1.6147 0.31862-0.68584 0.87485-1.0477 0.56164-0.36182 1.2691-0.36182 0.50224 0 0.83706 0.16741 0.34022 0.16201 0.51843 0.37802 0.18361 0.21061 0.34022 0.48063h0.054v-2.9054h1.1557v7.8197h-1.1233v-0.91806h-0.0864q-0.15121 0.26462-0.34562 0.48603-0.18901 0.21601-0.52923 0.38342-0.34023 0.16741-0.83166 0.16741zm-1.2745-3.0566q-5e-3 0.59944 0.17281 1.0693 0.17822 0.46443 0.52384 0.73445t0.83705 0.27002q0.48063 0 0.82625-0.25922 0.34562-0.25922 0.52384-0.72905 0.18361-0.46983 0.18361-1.0855t-0.17821-1.0693q-0.17822-0.45363-0.52384-0.70204-0.34562-0.24842-0.83165-0.24842-0.49683 0-0.84245 0.25922-0.34562 0.25922-0.52384 0.71825-0.17281 0.45363-0.16741 1.0423z"/>
     <path d="m153.33 25.006q-0.85325 0-1.4851-0.37262-0.63184-0.37262-0.96666-1.0531t-0.33482-1.5877q0-0.89646 0.33482-1.5877t0.95046-1.0747 1.4257-0.38342q0.70744 0 1.2961 0.30782 0.58864 0.30782 0.94506 0.97206 0.36182 0.65884 0.36182 1.6687v0.41043h-4.1691q0.0162 0.55084 0.22681 0.94506 0.21062 0.39422 0.57784 0.59944t0.84785 0.20521q0.46443 0 0.78845-0.17281 0.32942-0.17821 0.48603-0.46443h1.1665q-0.12961 0.47523-0.46443 0.83705-0.33482 0.35642-0.84245 0.55624-0.50764 0.19441-1.1449 0.19441zm1.3933-3.5642q0-0.44283-0.18361-0.79385-0.17821-0.35642-0.51303-0.55084-0.32942-0.19981-0.76145-0.19981-0.44823 0-0.79925 0.21061-0.34562 0.20521-0.54544 0.56164-0.19981 0.35642-0.22681 0.77225z"/>
     <path d="m158.16 24.888h-1.1557v-7.8197h1.1557z"/>
     <path d="m162.38 17.068h2.7866q0.88566 0 1.4905 0.32942 0.61023 0.32402 0.91265 0.89646 0.30782 0.57244 0.30782 1.3123 0 0.73445-0.30782 1.3123-0.30242 0.57244-0.91265 0.90186-0.61024 0.32402-1.4905 0.32402h-1.5985v2.7434h-1.1881zm2.6678 4.0611q0.82626 0.0054 1.2259-0.41043 0.40503-0.41583 0.40503-1.1125 0-0.70204-0.40503-1.1071-0.39962-0.41043-1.2259-0.41583h-1.4797v3.0458z"/>
     <path d="m170.19 24.888h-1.1557v-7.8197h1.1557z"/>
     <path d="m171.34 23.235q-5e-3 -0.91266 0.61024-1.3015 0.62104-0.38882 1.5823-0.45903 1.2475-0.0702 1.5391-0.08101l-5e-3 -0.46983q5e-3 -0.50223-0.30242-0.77225-0.30242-0.27542-0.88566-0.27542-0.49143 0-0.80465 0.20521-0.31322 0.19981-0.40502 0.54004h-1.1449q0.054-0.48603 0.36183-0.86406 0.30782-0.38342 0.83165-0.59404 0.52383-0.21601 1.2043-0.21601 0.55623 0 1.0693 0.17281 0.51844 0.16741 0.87486 0.62644 0.35642 0.45363 0.35642 1.2421v3.899h-1.1233v-0.79925h-0.0432q-0.19982 0.38342-0.63724 0.65884-0.43743 0.27002-1.1017 0.27002-0.56164 0-1.0153-0.21061-0.44823-0.21061-0.70744-0.61024-0.25382-0.40503-0.25382-0.96126zm1.1233 0.0108q0 0.41043 0.30242 0.63184 0.30782 0.21601 0.81005 0.22141 0.45363 0 0.79385-0.18361 0.34023-0.18361 0.52384-0.48603 0.18361-0.30782 0.18361-0.65884l-5e-3 -0.53463-1.3771 0.09181q-0.58864 0.0432-0.91266 0.27002-0.31862 0.22681-0.31862 0.64804z"/>
     <path d="m178.11 27.091q-0.46983-0.0108-0.61564-0.0324v-0.96126q0.0864 0.0054 0.51844 0.0216 0.22681-0.0054 0.36722-0.0486 0.14581-0.0378 0.28622-0.20521 0.14581-0.16201 0.27542-0.51303l0.14041-0.38882-2.1493-5.9404h1.2313l1.4797 4.5471h0.0648l1.4797-4.5471h1.2421l-2.4194 6.6424q-0.25921 0.70744-0.72364 1.0639-0.46443 0.35642-1.1773 0.36182z"/>
     <path d="m185.72 25.006q-0.85325 0-1.4851-0.37262-0.63184-0.37262-0.96666-1.0531t-0.33482-1.5877q0-0.89646 0.33482-1.5877t0.95046-1.0747 1.4257-0.38342q0.70744 0 1.2961 0.30782 0.58864 0.30782 0.94506 0.97206 0.36182 0.65884 0.36182 1.6687v0.41043h-4.1691q0.0162 0.55084 0.22681 0.94506 0.21062 0.39422 0.57784 0.59944t0.84785 0.20521q0.46443 0 0.78845-0.17281 0.32943-0.17821 0.48604-0.46443h1.1665q-0.12961 0.47523-0.46443 0.83705-0.33482 0.35642-0.84245 0.55624-0.50764 0.19441-1.1449 0.19441zm1.3933-3.5642q0-0.44283-0.18361-0.79385-0.17821-0.35642-0.51303-0.55084-0.32942-0.19981-0.76145-0.19981-0.44823 0-0.79925 0.21061-0.34562 0.20521-0.54544 0.56164-0.19981 0.35642-0.22681 0.77225z"/>
     <path d="m189.39 19.023h1.1125v0.92886h0.0648q0.16201-0.46443 0.56164-0.73985 0.40502-0.27542 0.91265-0.27542 0.25382 0 0.50224 0.0216v1.1017q-0.0972-0.0216-0.28082-0.0432-0.17821-0.0216-0.33482-0.0216-0.39423 0-0.70745 0.17281-0.31322 0.16741-0.49683 0.46983-0.17821 0.29702-0.17821 0.67504v3.575h-1.1557z"/>
    </g>
   </g>
  </g>
 </g>
</svg>
